<svg width="250" height="120" viewBox="0 0 250 120" fill="none" xmlns="http://www.w3.org/2000/svg">
<g clip-path="url(#clip0_7172_1426)">
<path fill-rule="evenodd" clip-rule="evenodd" d="M95.3528 6.0185C92.307 8.08105 89.4981 10.4817 86.9261 13.1191C77.1458 23.1952 71.0881 37.1259 71.0881 52.5105C71.0881 67.8951 77.1458 81.8258 86.9261 91.9018C96.7065 101.978 110.209 108.233 125.134 108.233C140.058 108.233 153.561 101.978 163.341 91.9018C173.122 81.8258 179.179 67.8951 179.179 52.5105C179.179 37.1259 173.122 23.1952 163.341 13.1191C160.735 10.4479 157.893 8.04724 154.813 5.95088V6.79619C157.69 8.79111 160.397 11.0904 162.834 13.5925C172.479 23.5671 178.469 37.2949 178.469 52.5105C178.469 67.6922 172.512 81.4538 162.834 91.4285C153.189 101.369 139.855 107.523 125.134 107.523C110.412 107.523 97.0787 101.369 87.4338 91.4285C77.7888 81.4538 71.7988 67.726 71.7988 52.5105C71.7988 37.3287 77.755 23.5671 87.4338 13.5925C89.8366 11.0904 92.5101 8.85874 95.3528 6.86381V6.0185ZM139.246 120C137.317 119.898 128.856 118.952 129.567 109.755C129.567 109.755 139.787 109.349 139.652 119.797C138.501 117.937 137.08 116.247 135.489 114.691C133.797 113.035 131.902 111.479 130.007 109.924L129.736 110.262C131.631 111.817 133.493 113.339 135.185 114.996C136.708 116.551 138.129 118.174 139.246 120ZM133.831 93.6601C133.628 95.7903 133.087 97.8528 132.342 99.9492C131.564 102.181 130.548 104.379 129.533 106.61L129.939 106.779C130.988 104.548 131.97 102.316 132.782 100.084C133.527 97.9542 134.102 95.8241 134.305 93.6601C139.009 102.992 129.635 107.084 129.635 107.084C124.931 99.1377 132.139 94.6068 133.831 93.6601ZM147.3 2.46821C148.552 3.07683 149.771 3.68545 150.921 4.39551C151.801 4.93651 152.647 5.4775 153.392 6.11994V6.15375C147.639 7.26956 147.3 2.80633 147.3 2.46821ZM153.358 5.748C153.223 4.66601 152.377 1.92721 147.774 2.40058C148.925 2.94158 150.008 3.51639 151.057 4.15882C151.869 4.63219 152.647 5.13938 153.358 5.748ZM152.918 -9.51638e-05C153.629 1.18334 154.339 2.36677 155.152 3.48258C155.761 4.32788 156.404 5.10557 157.114 5.81563H157.148C157.724 -0.0677192 153.256 -9.51638e-05 152.918 -9.51638e-05ZM156.708 5.78182C156.065 5.10557 155.49 4.39551 154.915 3.61783C154.204 2.63727 153.527 1.55527 152.884 0.473278C152.783 5.13938 155.591 5.748 156.708 5.78182ZM153.121 9.5688C154.373 10.1774 155.591 10.786 156.742 11.4961C157.622 12.0371 158.468 12.5781 159.213 13.2205V13.2543C153.459 14.3701 153.155 9.90692 153.121 9.5688ZM159.213 12.8486C158.502 12.2738 157.724 11.7328 156.911 11.2594C155.862 10.617 154.745 10.076 153.629 9.50117C158.231 9.0278 159.043 11.7666 159.213 12.8486ZM158.806 3.11064C159.145 3.14445 163.578 3.88832 161.954 9.53498H161.92C161.345 8.72349 160.837 7.84437 160.397 6.89762C159.788 5.68038 159.28 4.39551 158.806 3.11064ZM161.514 9.46736C160.431 9.23067 157.791 8.14868 158.671 3.58401C159.111 4.76744 159.585 5.91706 160.126 7.03287C160.566 7.87818 161.006 8.68968 161.514 9.46736ZM164.154 6.0185C164.526 6.15375 169.297 7.91199 166.286 13.863H166.252C165.778 12.8148 165.439 11.7328 165.135 10.617C164.729 9.12924 164.424 7.57387 164.154 6.0185ZM165.812 13.6939C164.661 13.1867 161.92 11.4285 163.917 6.49187C164.154 7.91199 164.424 9.2983 164.797 10.6508C165.067 11.7328 165.406 12.7472 165.812 13.6939ZM158.671 15.0802C160.16 15.7903 161.649 16.5341 163.037 17.3794C164.086 18.0219 165.101 18.6981 166.015 19.4758V19.5096C159.077 20.7945 158.671 15.486 158.671 15.0802ZM165.947 18.9686C165.101 18.2586 164.154 17.6499 163.206 17.0751C161.954 16.3313 160.6 15.655 159.246 14.9788C164.763 14.404 165.778 17.6838 165.947 18.9686ZM168.925 11.5299C169.297 11.6652 174.306 13.491 171.125 19.7463H171.091C170.617 18.6643 170.245 17.5147 169.907 16.3313C169.534 14.7759 169.23 13.1529 168.925 11.5299ZM170.685 19.5772C169.501 19.0363 166.624 17.2104 168.688 12.0709C168.959 13.5587 169.23 15.0126 169.602 16.4327C169.907 17.5147 170.245 18.5629 170.685 19.5772ZM164.052 21.8427C165.406 22.7894 166.759 23.7362 168.011 24.7505C168.959 25.5282 169.839 26.3735 170.617 27.2526V27.2865C163.578 27.557 164.018 22.2484 164.052 21.8427ZM170.651 26.7793C169.907 25.9678 169.094 25.2239 168.215 24.48C167.098 23.5333 165.879 22.688 164.627 21.8089C170.177 22.0794 170.651 25.4606 170.651 26.7793ZM174.915 16.8046C175.288 17.0751 179.89 20.5578 174.611 26.0354L174.577 26.0016C174.408 24.7167 174.374 23.398 174.441 22.0794C174.509 20.3549 174.712 18.5967 174.915 16.8046ZM174.171 25.6973C173.088 24.7843 170.719 21.9441 174.509 17.2442C174.306 18.8672 174.137 20.4902 174.069 22.0794C174.035 23.3304 174.069 24.5138 174.171 25.6973ZM179.213 24.7843C179.552 25.0887 183.85 29.349 177.656 34.3194L177.623 34.2856C177.623 32.9331 177.758 31.5806 177.995 30.1943C178.299 28.4023 178.739 26.6102 179.213 24.7843ZM177.25 33.9137C176.269 32.7979 174.171 29.5519 178.706 25.1901C178.266 26.8469 177.893 28.5037 177.623 30.1267C177.42 31.4116 177.284 32.6626 177.25 33.9137ZM167.842 29.18C169.297 30.5324 170.685 31.8849 171.971 33.3389C172.952 34.4209 173.832 35.5705 174.611 36.7539V36.7877C166.286 35.841 167.741 29.6533 167.842 29.18ZM174.746 36.2129C174.002 35.1309 173.189 34.0827 172.309 33.0684C171.159 31.7497 169.873 30.4986 168.553 29.2814C175.017 30.5663 174.983 34.6576 174.746 36.2129ZM182.733 31.9526C181.988 33.9475 181.311 35.9424 180.77 37.9712C180.364 39.4927 180.059 41.0143 179.89 42.5358L179.924 42.5696C187.471 37.5992 183.071 32.3245 182.733 31.9526ZM179.518 42.0625C178.536 40.71 176.506 36.7877 182.124 32.3921C181.481 34.218 180.838 36.0439 180.364 37.8697C179.992 39.2222 179.687 40.6423 179.518 42.0625ZM169.974 37.6668C171.328 39.3237 172.648 40.9805 173.798 42.7049C174.678 44.0236 175.457 45.3423 176.134 46.7286L176.1 46.7624C167.368 44.5646 169.805 38.174 169.974 37.6668ZM176.337 46.1876C175.727 44.9027 174.983 43.6854 174.171 42.4682C173.122 40.9128 171.937 39.3913 170.719 37.8697C177.453 40.2366 176.844 44.5646 176.337 46.1876ZM185.406 41.6905C185.677 42.1301 188.96 48.1487 180.601 51.5637L180.567 51.5299C181.007 50.076 181.616 48.6221 182.293 47.2019C183.24 45.3423 184.289 43.5164 185.406 41.6905ZM180.296 50.9889C179.585 49.4674 178.367 45.2408 184.729 41.9948C183.714 43.6516 182.767 45.3423 181.954 47.0329C181.311 48.3177 180.736 49.6364 180.296 50.9889ZM170.787 46.8976C172.14 48.5544 173.46 50.2112 174.611 51.9357C175.491 53.2543 176.269 54.573 176.946 55.9593L176.912 55.9931C168.147 53.7953 170.583 47.371 170.787 46.8976ZM177.149 55.3845C176.54 54.0996 175.795 52.8824 174.983 51.6652C173.934 50.1098 172.749 48.5882 171.531 47.0667C178.266 49.4335 177.623 53.7953 177.149 55.3845ZM186.828 51.327C185.406 52.9162 184.053 54.5392 182.8 56.196C181.853 57.4809 181.041 58.7657 180.33 60.1521L180.364 60.1859C189.197 58.2924 186.997 51.8004 186.828 51.327ZM180.161 59.5772C180.838 58.3262 181.616 57.1089 182.462 55.9593C183.579 54.4378 184.831 52.9838 186.083 51.4961C179.247 53.5587 179.721 57.9204 180.161 59.5772ZM169.636 55.4183C170.99 57.0751 172.309 58.7319 173.46 60.4564C174.34 61.7751 175.118 63.0937 175.795 64.48L175.761 64.5138C166.996 62.316 169.433 55.8917 169.636 55.4183ZM175.998 63.9052C175.389 62.6204 174.645 61.4031 173.832 60.1859C172.783 58.6305 171.599 57.1089 170.38 55.5874C177.115 57.9543 176.472 62.316 175.998 63.9052ZM187.065 61.2341C187.098 61.7412 187.572 68.6051 178.536 68.1656V68.098C179.552 66.9483 180.702 65.9002 181.921 64.9196C183.545 63.6347 185.271 62.4513 187.065 61.2341ZM178.502 67.5231C178.502 65.8325 179.179 61.5046 186.32 61.2341C184.696 62.316 183.139 63.4319 181.684 64.6153C180.533 65.5282 179.45 66.475 178.502 67.5231ZM168.451 64.4462C169.297 66.1368 169.907 67.9627 170.347 69.8562C170.82 71.8849 171.125 74.0151 171.43 76.1791L171.802 76.1453C171.497 73.9813 171.193 71.8511 170.719 69.7886C170.279 67.8613 169.67 66.0016 168.79 64.2772C176.777 69.0109 171.734 76.551 171.734 76.551C164.458 72.7979 167.639 65.934 168.451 64.4462ZM184.865 79.5941C183.816 80.9466 178.739 86.5595 172.479 81.3186C172.479 81.3186 177.453 73.7108 184.932 79.2222C183.003 79.087 181.041 79.256 179.078 79.5941C177.013 79.9661 174.915 80.5071 172.817 81.0819L172.919 81.4538C175.017 80.879 177.081 80.338 179.146 79.9661C181.074 79.628 182.97 79.4589 184.865 79.5941ZM180.702 88.994C179.382 90.1436 173.257 94.9111 167.876 88.453C167.876 88.453 174.306 81.6905 180.838 88.622C178.909 88.1149 176.912 87.9458 174.848 87.912C172.682 87.912 170.482 88.081 168.248 88.2501L168.282 88.6559C170.482 88.453 172.682 88.2839 174.848 88.3177C176.844 88.3515 178.807 88.5206 180.702 88.994ZM165.643 72.9331C166.049 74.9619 166.082 77.0582 165.981 79.1546C165.846 81.4538 165.541 83.7531 165.203 86.0861L165.609 86.1537C165.947 83.8207 166.286 81.4538 166.421 79.1884C166.522 77.0244 166.455 74.8942 166.082 72.8317C173.02 80.2028 165.44 86.5595 165.44 86.5595C158.908 80.4733 164.323 74.2518 165.643 72.9331ZM175.254 97.278C173.697 98.2924 166.522 102.384 161.818 94.8097C161.818 94.8097 169.568 88.6559 175.423 96.9061C173.46 96.0946 171.396 95.5874 169.23 95.2831C166.962 94.9449 164.593 94.8097 162.225 94.6744L162.191 95.0802C164.56 95.2154 166.895 95.3507 169.162 95.6888C171.294 95.9931 173.325 96.4665 175.254 97.278ZM168.451 104.852C166.658 105.596 158.603 108.368 155.287 99.7801C155.287 99.7801 164.357 95.0126 168.688 104.514C166.861 103.33 164.83 102.417 162.732 101.674C160.499 100.896 158.13 100.287 155.727 99.7125L155.625 100.118C157.994 100.693 160.329 101.302 162.597 102.079C164.695 102.823 166.658 103.702 168.451 104.852ZM159.72 81.3186C159.822 83.3811 159.585 85.4437 159.145 87.54C158.705 89.7717 158.028 92.0371 157.351 94.2687L157.757 94.404C158.434 92.1385 159.111 89.8731 159.551 87.6077C159.991 85.4775 160.228 83.3473 160.126 81.251C165.913 89.535 157.487 94.7421 157.487 94.7421C151.97 87.7767 158.231 82.4344 159.72 81.3186ZM159.246 111.141C157.385 111.648 149.026 113.44 146.826 104.48C146.826 104.48 156.404 100.862 159.551 110.837C157.893 109.417 155.998 108.301 153.967 107.286C151.835 106.238 149.568 105.359 147.266 104.48L147.097 104.886C149.365 105.765 151.632 106.644 153.764 107.692C155.761 108.639 157.622 109.755 159.246 111.141ZM152.512 88.1487C152.173 90.245 151.497 92.3076 150.617 94.3363C149.669 96.5003 148.519 98.6305 147.368 100.794L147.74 100.997C148.925 98.8334 150.075 96.7032 151.023 94.5054C151.903 92.4428 152.613 90.3465 152.952 88.1825C157.047 97.7852 147.402 101.268 147.402 101.268C143.273 93.0515 150.786 88.9602 152.512 88.1487ZM149.432 115.672C147.503 115.875 139.009 116.314 138.231 107.117C138.231 107.117 148.282 105.089 149.771 115.435C148.349 113.778 146.657 112.358 144.83 111.04C142.901 109.653 140.803 108.436 138.671 107.185L138.467 107.557C140.566 108.774 142.664 109.991 144.593 111.378C146.42 112.663 148.045 114.049 149.432 115.672ZM143.645 92.4766C143.171 94.5392 142.393 96.5679 141.378 98.5291C140.329 100.659 139.043 102.722 137.757 104.784L138.129 105.021C139.415 102.925 140.701 100.862 141.75 98.7319C142.765 96.737 143.578 94.6745 144.051 92.5443C147.571 102.384 137.757 105.292 137.757 105.292C134.136 96.8384 141.852 93.2205 143.645 92.4766ZM186.252 70.0929C186.185 70.6001 185.034 77.3625 176.37 74.8604V74.7928C177.623 73.9137 178.976 73.1698 180.398 72.4936C182.259 71.5806 184.256 70.8368 186.252 70.0929ZM176.472 74.1842C176.844 72.5612 178.536 68.4699 185.542 69.89C183.714 70.5663 181.921 71.2763 180.228 72.0878C178.909 72.7302 177.656 73.4065 176.472 74.1842ZM110.954 120C112.883 119.898 121.343 118.952 120.633 109.755C120.633 109.755 110.412 109.349 110.548 119.797C111.698 117.937 113.12 116.247 114.71 114.691C116.403 113.035 118.298 111.479 120.193 109.924L120.464 110.262C118.568 111.817 116.707 113.339 115.015 114.996C113.458 116.551 112.071 118.174 110.954 120ZM116.369 93.6601C118.061 94.573 125.269 99.1377 120.599 107.084C120.599 107.084 111.225 102.992 115.929 93.6601C116.132 95.8241 116.707 97.9542 117.452 100.084C118.23 102.316 119.245 104.548 120.294 106.779L120.7 106.61C119.685 104.412 118.67 102.181 117.892 99.9492C117.113 97.8866 116.572 95.7903 116.369 93.6601ZM102.9 2.46821C102.9 2.80633 102.561 7.23575 96.808 6.15375V6.11994C97.5864 5.4775 98.3986 4.90269 99.2785 4.39551C100.429 3.68545 101.647 3.07683 102.9 2.46821ZM96.808 5.748C97.5187 5.17319 98.297 4.63219 99.1093 4.15882C100.158 3.51639 101.275 2.97539 102.392 2.40058C97.7894 1.92721 96.9772 4.66601 96.808 5.748ZM97.2818 -9.51638e-05C96.9434 -9.51638e-05 92.4762 -0.0677192 93.0854 5.78182H93.1192C93.8299 5.07176 94.4729 4.29407 95.0821 3.44876C95.8266 2.36677 96.5711 1.18334 97.2818 -9.51638e-05ZM93.4915 5.78182C94.5744 5.71419 97.3833 5.13938 97.3156 0.473278C96.6726 1.55527 95.9958 2.63727 95.2851 3.61783C94.7098 4.39551 94.1345 5.13938 93.4915 5.78182ZM97.0449 9.5688C97.0449 9.90692 96.7065 14.3363 90.9533 13.2543V13.2205C91.7317 12.5781 92.5439 12.0033 93.4238 11.4961C94.5744 10.786 95.8266 10.1774 97.0449 9.5688ZM90.9872 12.8486C91.1225 11.7666 91.9686 9.0278 96.5711 9.50117C95.4543 10.0422 94.3375 10.617 93.2884 11.2594C92.4762 11.7328 91.6979 12.24 90.9872 12.8486ZM91.3933 3.11064C90.8857 4.39551 90.378 5.68038 89.8027 6.89762C89.3628 7.81055 88.8551 8.68968 88.2798 9.53498H88.246C86.6216 3.88832 91.0549 3.14445 91.3933 3.11064ZM88.6521 9.46736C89.1597 8.68968 89.6335 7.87818 90.0396 7.03287C90.5811 5.91706 91.0549 4.76744 91.4948 3.58401C92.4085 8.14868 89.735 9.23067 88.6521 9.46736ZM86.0124 6.0185C85.7417 7.57387 85.4709 9.12924 85.0648 10.617C84.7603 11.7328 84.388 12.8486 83.9481 13.863H83.9142C80.8684 7.91199 85.6402 6.15375 86.0124 6.0185ZM84.3542 13.6939C84.7603 12.7133 85.0987 11.699 85.3694 10.6846C85.7417 9.33211 86.0124 7.9458 86.2493 6.52569C88.246 11.4285 85.5048 13.1867 84.3542 13.6939ZM91.5287 15.0802C91.4948 15.486 91.1225 20.7945 84.2188 19.4758V19.442C85.1325 18.6643 86.1139 17.9881 87.1969 17.3456C88.5506 16.5341 90.0396 15.7903 91.5287 15.0802ZM84.2526 18.9686C84.4218 17.6838 85.4371 14.404 90.9533 14.9788C89.5997 15.655 88.246 16.3313 86.9938 17.0751C86.0124 17.6499 85.0987 18.2924 84.2526 18.9686ZM81.2407 11.5299C80.97 13.1529 80.6654 14.7759 80.2593 16.3313C79.9547 17.5147 79.5824 18.6643 79.0748 19.7463H79.041C75.8598 13.5248 80.8684 11.6652 81.2407 11.5299ZM79.5148 19.5772C79.9547 18.5629 80.2931 17.5147 80.5639 16.4327C80.9361 15.0126 81.2407 13.5587 81.4776 12.0709C83.5758 17.2104 80.6992 19.0363 79.5148 19.5772ZM86.1478 21.8427C86.1816 22.2484 86.5877 27.557 79.5824 27.2865V27.2526C80.3608 26.3735 81.2407 25.5282 82.1883 24.7505C83.4404 23.7362 84.7603 22.7556 86.1478 21.8427ZM79.5486 26.7793C79.5148 25.4606 80.0224 22.0794 85.5725 21.8089C84.3203 22.6542 83.102 23.5333 81.9852 24.48C81.1053 25.2239 80.2931 25.9678 79.5486 26.7793ZM75.2507 16.8046C75.4876 18.5967 75.6568 20.3549 75.7245 22.1132C75.7583 23.4319 75.7245 24.7505 75.5891 26.0354H75.5552C70.3097 20.5578 74.9122 17.0751 75.2507 16.8046ZM75.9952 25.6973C76.1306 24.5138 76.1306 23.2966 76.0967 22.0794C76.029 20.4902 75.8598 18.8672 75.6568 17.2442C79.4809 21.9441 77.0781 24.7843 75.9952 25.6973ZM70.9527 24.7843C71.4265 26.6102 71.8665 28.4023 72.171 30.2281C72.4079 31.6144 72.5433 32.9669 72.5433 34.3194L72.5095 34.3532C66.3164 29.349 70.6482 25.0887 70.9527 24.7843ZM72.9494 33.9137C72.9156 32.6626 72.7802 31.4116 72.5772 30.1605C72.3064 28.5375 71.9003 26.8807 71.4942 25.2239C76.029 29.5519 73.9308 32.7979 72.9494 33.9137ZM82.3236 29.18C82.459 29.6533 83.8804 35.841 75.5891 36.7877V36.7539C76.3675 35.5705 77.2473 34.4209 78.2288 33.3389C79.4809 31.8849 80.9023 30.5324 82.3236 29.18ZM75.4537 36.2129C75.183 34.6914 75.1491 30.6001 81.6468 29.2814C80.327 30.5324 79.0748 31.7835 77.8903 33.0684C77.0104 34.0489 76.1644 35.0971 75.4537 36.2129ZM67.4332 31.9526C67.0948 32.3583 62.6953 37.5992 70.2421 42.5696L70.2759 42.5358C70.1067 41.0143 69.8021 39.4927 69.396 37.9712C68.8884 35.9424 68.1777 33.9475 67.4332 31.9526ZM70.6482 42.0625C70.479 40.6423 70.1744 39.256 69.8021 37.8359C69.3283 36.01 68.6853 34.1842 68.0423 32.3583C73.6601 36.7877 71.6634 40.71 70.6482 42.0625ZM80.1916 37.6668C80.3946 38.1402 82.8313 44.5646 74.0662 46.7624L74.0324 46.7286C74.6754 45.3423 75.4537 43.9898 76.3675 42.7049C77.5181 41.0143 78.8379 39.3237 80.1916 37.6668ZM73.8293 46.1876C73.3217 44.5984 72.7125 40.2366 79.4471 37.9035C78.2288 39.4251 77.0443 40.9466 75.9952 42.502C75.2168 43.6854 74.4723 44.9027 73.8293 46.1876ZM64.7935 41.6905C65.9103 43.5164 66.9594 45.3423 67.8731 47.2019C68.55 48.6221 69.1591 50.0422 69.5991 51.5299L69.5652 51.5637C61.2063 48.1825 64.5228 42.1639 64.7935 41.6905ZM69.8698 50.9889C69.4298 49.6364 68.8884 48.3177 68.2454 46.9991C67.4332 45.3084 66.4518 43.6516 65.4703 41.961C71.8326 45.2408 70.6143 49.4674 69.8698 50.9889ZM79.4132 46.8976C79.6163 47.371 82.0529 53.7953 73.2878 56.027L73.254 55.9931C73.897 54.6068 74.6754 53.2543 75.5552 51.9695C76.7397 50.2112 78.0596 48.5544 79.4132 46.8976ZM73.0509 55.3845C72.5433 53.7615 71.9342 49.4335 78.6687 47.1005C77.4504 48.6221 76.2659 50.1436 75.2168 51.699C74.4046 52.8824 73.6601 54.0996 73.0509 55.3845ZM63.3721 51.327C63.2029 51.8004 61.0032 58.3262 69.836 60.1859L69.8698 60.1521C69.1591 58.7996 68.3131 57.4809 67.3993 56.196C66.1472 54.5392 64.7597 52.9162 63.3721 51.327ZM70.039 59.5772C70.479 57.9543 70.9189 53.5925 64.0828 51.4961C65.3688 52.95 66.5871 54.4378 67.7039 55.9593C68.5838 57.1089 69.3622 58.3262 70.039 59.5772ZM80.5639 55.4183C80.7669 55.8917 83.2035 62.316 74.4385 64.5138L74.4046 64.48C75.0476 63.0937 75.826 61.7412 76.7397 60.4564C77.8903 58.7319 79.2102 57.0751 80.5639 55.4183ZM74.2016 63.9052C73.6939 62.316 73.0848 57.9543 79.8193 55.6212C78.601 57.1428 77.4166 58.6643 76.3675 60.2197C75.5552 61.4031 74.8107 62.6542 74.2016 63.9052ZM63.1352 61.2341C64.895 62.4175 66.6548 63.6347 68.2454 64.9196C69.4637 65.9002 70.6143 66.9483 71.6296 68.098V68.1656C62.6276 68.6051 63.0676 61.7751 63.1352 61.2341ZM71.6973 67.5231C70.7158 66.475 69.6667 65.5282 68.55 64.6153C67.0948 63.4319 65.5042 62.316 63.9136 61.2341C71.0204 61.5046 71.6973 65.8325 71.6973 67.5231ZM81.7145 64.4462C82.5267 65.934 85.7417 72.7979 78.4318 76.5172C78.4318 76.5172 73.3894 68.9771 81.3761 64.2433C80.4962 65.9678 79.887 67.8275 79.4471 69.7548C78.9733 71.8173 78.6687 73.9475 78.3641 76.1115L78.7364 76.1453C79.041 74.0151 79.3455 71.8849 79.8193 69.8224C80.2593 67.9627 80.8684 66.1368 81.7145 64.4462ZM65.335 79.5941C67.2301 79.4589 69.1253 79.628 71.0543 79.9661C73.1186 80.338 75.2168 80.879 77.2812 81.4538L77.3827 81.0819C75.2845 80.5071 73.1863 79.9661 71.1219 79.5941C69.1591 79.256 67.1963 79.087 65.2673 79.2222C72.7464 73.7446 77.7211 81.3186 77.7211 81.3186C71.4265 86.5595 66.3841 80.9466 65.335 79.5941ZM69.4975 88.994C71.3927 88.5206 73.3217 88.3177 75.3522 88.3177C77.5181 88.3177 79.7178 88.4868 81.9175 88.6559L81.9514 88.2501C79.7178 88.0472 77.5181 87.8782 75.3522 87.912C73.3217 87.912 71.2912 88.1149 69.3622 88.622C75.8937 81.6905 82.3236 88.453 82.3236 88.453C76.9428 94.9111 70.8174 90.1436 69.4975 88.994ZM84.5234 72.9331C85.8432 74.2518 91.2579 80.4395 84.7603 86.5595C84.7603 86.5595 77.1797 80.2028 84.1173 72.8317C83.7112 74.8942 83.6435 77.0244 83.7788 79.1884C83.9142 81.4876 84.2188 83.8207 84.591 86.1537L84.9972 86.0861C84.6587 83.7531 84.3203 81.42 84.2188 79.1546C84.0834 77.0582 84.1511 74.9619 84.5234 72.9331ZM74.9461 97.278C76.8412 96.5003 78.9056 96.0269 81.0038 95.6888C83.2712 95.3507 85.6063 95.2154 87.9752 95.0802L87.9414 94.6744C85.5725 94.8097 83.2035 94.9449 80.9361 95.2831C78.7702 95.5874 76.7059 96.0946 74.743 96.9061C80.5977 88.622 88.3813 94.7759 88.3813 94.7759C83.6773 102.384 76.5028 98.2924 74.9461 97.278ZM81.7483 104.852C83.5419 103.702 85.5048 102.823 87.603 102.079C89.8366 101.302 92.2055 100.727 94.5744 100.118L94.4729 99.7125C92.0701 100.287 89.7012 100.896 87.4676 101.674C85.3356 102.417 83.3389 103.297 81.5114 104.514C85.877 95.0126 94.9128 99.7801 94.9128 99.7801C91.5963 108.402 83.5081 105.596 81.7483 104.852ZM90.4457 81.3186C91.9348 82.4344 98.2294 87.7767 92.6793 94.7421C92.6793 94.7421 84.2526 89.535 90.0396 81.251C89.9381 83.3473 90.175 85.4775 90.6149 87.6077C91.0549 89.8393 91.7317 92.1047 92.4085 94.404L92.8146 94.2687C92.1378 92.0033 91.461 89.7717 91.021 87.54C90.6149 85.4437 90.3442 83.3811 90.4457 81.3186ZM90.9533 111.141C92.5778 109.755 94.4391 108.639 96.4019 107.692C98.5339 106.644 100.768 105.765 103.069 104.886L102.9 104.48C100.598 105.359 98.3309 106.238 96.1988 107.286C94.1683 108.267 92.2732 109.417 90.6149 110.837C93.7622 100.862 103.339 104.48 103.339 104.48C101.14 113.406 92.7808 111.648 90.9533 111.141ZM97.654 88.1487C99.4138 88.9602 106.893 93.0515 102.764 101.268C102.764 101.268 93.1192 97.7852 97.2141 88.1825C97.5525 90.3465 98.2632 92.4428 99.1431 94.5054C100.091 96.6694 101.241 98.8334 102.426 100.997L102.798 100.794C101.614 98.6643 100.497 96.5341 99.5492 94.3363C98.7031 92.3076 97.9925 90.245 97.654 88.1487ZM100.734 115.672C102.121 114.049 103.779 112.663 105.573 111.378C107.502 110.025 109.6 108.774 111.698 107.557L111.495 107.185C109.363 108.402 107.265 109.653 105.336 111.04C103.509 112.324 101.817 113.778 100.395 115.435C101.918 105.089 111.935 107.117 111.935 107.117C111.191 116.281 102.663 115.875 100.734 115.672ZM106.554 92.4766C108.348 93.1867 116.064 96.8384 112.409 105.292C112.409 105.292 102.595 102.384 106.115 92.5443C106.588 94.6745 107.401 96.737 108.416 98.7319C109.465 100.862 110.751 102.925 112.037 105.021L112.409 104.784C111.123 102.722 109.837 100.659 108.788 98.5291C107.807 96.5679 106.994 94.573 106.554 92.4766ZM63.9475 70.0929C65.9441 70.8368 67.907 71.6144 69.8021 72.4936C71.2235 73.1698 72.5772 73.9137 73.8631 74.7928V74.8604C65.1658 77.3625 64.0151 70.6001 63.9475 70.0929ZM73.7278 74.1842C72.5433 73.4065 71.2912 72.6964 69.9713 72.0878C68.2792 71.2763 66.4856 70.5663 64.6581 69.89C71.6634 68.4699 73.3217 72.5612 73.7278 74.1842Z" fill="url(#paint0_linear_7172_1426)"/>
<path fill-rule="evenodd" clip-rule="evenodd" d="M164.864 26.2721C165.27 30.6001 165.338 35.0971 165.135 39.6618C164.898 44.5308 164.356 49.4336 163.51 54.2011C162.631 59.2053 161.446 64.0743 160.025 68.5037C158.603 72.967 156.979 76.9906 155.185 80.4395C153.696 83.3135 151.903 86.4581 149.838 89.6364C147.808 92.781 145.506 95.9255 142.935 98.732C140.498 101.403 137.858 103.77 135.015 105.562C132.24 107.286 129.262 108.47 126.115 108.842C122.968 108.504 119.99 107.286 117.215 105.562C114.372 103.77 111.732 101.403 109.296 98.732C106.724 95.9255 104.422 92.781 102.392 89.6364C100.327 86.4581 98.5677 83.3135 97.0448 80.4395C95.2512 77.0244 93.6268 72.967 92.2054 68.5037C90.784 64.0405 89.5996 59.2053 88.7197 54.2011C87.8736 49.4336 87.3322 44.5308 87.0953 39.6618C86.8922 35.1309 86.9599 30.6001 87.366 26.2721C88.9566 24.0743 90.6825 22.0456 92.5438 20.2197C94.5067 18.2924 96.6049 16.5342 98.8046 15.0126C102.832 12.2062 107.197 10.1098 111.732 8.6897C116.402 7.23577 121.242 6.52571 126.081 6.52571C135.658 6.52571 145.236 9.36594 153.392 15.0126C155.591 16.5342 157.69 18.2924 159.652 20.2197C161.514 22.0456 163.274 24.0743 164.864 26.2721ZM167.165 39.7632C167.402 35.0295 167.301 30.3634 166.861 25.8326C166.861 25.6297 166.793 25.4606 166.658 25.2916C164.966 22.8909 163.104 20.7269 161.108 18.732C159.043 16.7032 156.844 14.8774 154.576 13.2882C146.082 7.37102 136.098 4.42934 126.081 4.42934C121.039 4.42934 115.962 5.17321 111.089 6.69477C106.351 8.18251 101.783 10.3803 97.5863 13.2882C95.3527 14.8774 93.153 16.7032 91.0886 18.732C89.0919 20.6931 87.2306 22.8909 85.5385 25.2916C85.437 25.4268 85.3693 25.5959 85.3355 25.7987C84.8955 30.3296 84.8279 35.0295 85.0309 39.7632C85.2678 44.7337 85.8431 49.7379 86.6892 54.573C87.5691 59.6787 88.7874 64.6153 90.2426 69.1462C91.6978 73.677 93.356 77.8359 95.2512 81.3862C96.7741 84.2941 98.6015 87.5401 100.666 90.7522C102.764 93.9982 105.133 97.2104 107.773 100.118C110.311 102.925 113.12 105.427 116.132 107.32C119.177 109.248 122.494 110.532 125.98 110.904C126.047 110.904 126.149 110.904 126.217 110.904C129.736 110.532 133.019 109.214 136.098 107.32C139.11 105.427 141.919 102.925 144.457 100.118C147.097 97.2104 149.466 93.9982 151.564 90.7522C153.662 87.5401 155.456 84.2941 156.979 81.3862C158.84 77.8359 160.532 73.677 161.988 69.1462C163.443 64.6153 164.627 59.6787 165.541 54.573C166.387 49.7379 166.928 44.7337 167.165 39.7632ZM169.602 55.2831C170.482 50.2113 171.091 44.9365 171.328 39.6956C171.565 34.7252 171.429 29.7548 170.956 24.9872C170.956 24.7167 170.888 24.4462 170.786 24.1757C170.685 23.9052 170.55 23.6347 170.38 23.3981C168.519 20.7269 166.455 18.2586 164.221 16.027C161.92 13.7277 159.483 11.699 156.911 9.90694C152.376 6.76239 147.435 4.36172 142.292 2.77254C137.012 1.11573 131.53 0.304237 126.081 0.304237C120.599 0.304237 115.116 1.11573 109.871 2.77254C104.727 4.36172 99.786 6.76239 95.2512 9.90694C92.6792 11.699 90.2426 13.7277 87.9413 16.027C85.7077 18.2586 83.6434 20.6931 81.7821 23.3981C81.7482 23.4319 81.7144 23.4657 81.7144 23.5333C81.6129 23.7362 81.5113 23.9053 81.4098 24.1081L81.376 24.1757C81.3083 24.3786 81.2406 24.6153 81.2068 24.8858C80.6991 29.6533 80.5976 34.6576 80.8345 39.6618C81.0714 44.9365 81.6467 50.2113 82.5604 55.3169C83.4742 60.5916 84.7602 65.7311 86.2492 70.4986C87.7721 75.2662 89.5319 79.628 91.4947 83.3473C93.0853 86.3904 94.9804 89.7717 97.1802 93.1191C99.3799 96.5003 101.85 99.8816 104.625 102.925C107.502 106.069 110.683 108.909 114.169 111.04C117.688 113.204 121.546 114.658 125.675 115.063C125.777 115.063 125.878 115.063 125.98 115.097C126.081 115.097 126.217 115.097 126.318 115.097C130.481 114.691 134.339 113.237 137.858 111.073C141.344 108.943 144.559 106.103 147.435 102.958C150.211 99.9154 152.681 96.5342 154.881 93.1529C157.08 89.8055 158.976 86.4243 160.566 83.3812C162.529 79.628 164.289 75.2662 165.812 70.5325C167.436 65.6973 168.688 60.5578 169.602 55.2831ZM169.264 39.5942C169.467 34.6914 169.365 29.8224 168.891 25.1563V25.0549C168.891 24.9534 168.857 24.8858 168.824 24.7844C168.79 24.7167 168.756 24.6153 168.688 24.5139C166.895 21.9103 164.898 19.5435 162.766 17.4133C160.566 15.2155 158.231 13.2544 155.761 11.5299C151.395 8.48682 146.623 6.18758 141.682 4.66603C136.606 3.07685 131.361 2.29917 126.081 2.29917C120.802 2.29917 115.556 3.07685 110.48 4.66603C105.539 6.2214 100.801 8.48682 96.4018 11.5299C93.9313 13.2544 91.5624 15.2155 89.3965 17.4133C87.3322 19.5773 85.3355 21.9103 83.5419 24.5139L83.508 24.5815C83.4742 24.6491 83.4403 24.7167 83.4065 24.7844V24.8182C83.3726 24.8858 83.3726 24.9534 83.3726 25.0211C82.8989 29.721 82.7635 34.59 83.0004 39.4927C83.2373 44.6322 83.8126 49.8393 84.6925 54.8774C85.6062 60.1183 86.8584 65.1563 88.3136 69.7886C89.8026 74.4209 91.5286 78.6812 93.4237 82.333C94.9804 85.3085 96.8418 88.6221 99.0076 91.9357C101.14 95.2155 103.576 98.5291 106.25 101.471C108.991 104.48 112.037 107.185 115.353 109.214C118.636 111.209 122.189 112.561 125.98 112.933H126.047C126.081 112.933 126.115 112.933 126.149 112.933C126.183 112.933 126.217 112.933 126.25 112.933C130.075 112.561 133.628 111.209 136.911 109.214C140.227 107.185 143.273 104.48 146.014 101.471C148.721 98.4953 151.124 95.2155 153.256 91.9357C155.422 88.6221 157.284 85.3085 158.84 82.333C160.735 78.6812 162.461 74.4547 163.95 69.7886C165.439 65.1563 166.658 60.1183 167.571 54.8774C168.451 49.9069 169.027 44.7337 169.264 39.5942Z" fill="url(#paint1_linear_7172_1426)"/>
<path fill-rule="evenodd" clip-rule="evenodd" d="M165.845 25.9001C166.725 35.0633 166.15 45.0041 164.492 54.4039C162.732 64.5476 159.72 73.9475 156.065 80.9466C153.019 86.7285 148.891 93.7277 143.679 99.442C138.704 104.92 132.782 109.18 126.115 109.89C119.414 109.18 113.492 104.92 108.551 99.442C103.373 93.7277 99.2105 86.7285 96.1647 80.9466C92.5098 73.9475 89.5317 64.5476 87.7381 54.4039C86.0798 45.0041 85.5045 35.0633 86.3844 25.9001C89.7686 21.1664 93.7958 17.2442 98.2291 14.1334C106.554 8.35153 116.335 5.44367 126.115 5.44367C135.895 5.44367 145.709 8.35153 154.001 14.1334C158.434 17.2442 162.461 21.1326 165.845 25.9001ZM168.587 55.0802C170.312 45.207 170.922 34.7252 169.94 25.0548C169.94 24.6829 169.805 24.2771 169.568 23.939C165.845 18.5967 161.344 14.1673 156.37 10.7184C147.334 4.4293 136.707 1.28475 126.115 1.28475C115.488 1.28475 104.896 4.4293 95.8602 10.7184C90.8854 14.2011 86.3844 18.5967 82.6618 23.9728C82.4587 24.2433 82.3234 24.5815 82.2895 24.9534C81.2743 34.6575 81.8834 45.207 83.6094 55.114C85.4368 65.6296 88.5841 75.469 92.4421 82.8401C95.5894 88.8925 99.955 96.196 105.437 102.215C111.055 108.402 117.857 113.237 125.81 114.015C125.946 114.049 126.115 114.049 126.25 114.015C134.237 113.237 141.073 108.402 146.691 102.215C152.173 96.196 156.505 88.8587 159.686 82.8401C163.612 75.4352 166.759 65.5958 168.587 55.0802Z" fill="url(#paint2_linear_7172_1426)"/>
<path fill-rule="evenodd" clip-rule="evenodd" d="M167.876 25.1563C169.907 44.7337 165.236 67.9289 157.927 81.8934C151.733 93.7277 140.904 110.566 126.115 111.986C111.36 110.566 100.497 93.7277 94.3036 81.8934C86.9938 67.8951 82.3236 44.7337 84.3879 25.1563C104.592 -3.85468 147.639 -3.85468 167.876 25.1563Z" stroke="#8F6137" stroke-width="0.461564" stroke-miterlimit="2.6131"/>
<path fill-rule="evenodd" clip-rule="evenodd" d="M167.876 25.1563C169.907 44.7337 165.236 67.9289 157.927 81.8934C151.733 93.7277 140.904 110.566 126.115 111.986C111.36 110.566 100.497 93.7277 94.3036 81.8934C86.9938 67.8951 82.3236 44.7337 84.3879 25.1563C104.592 -3.85468 147.639 -3.85468 167.876 25.1563Z" fill="#FF0000"/>
<path fill-rule="evenodd" clip-rule="evenodd" d="M107.841 100.051C112.714 105.427 118.467 109.653 125.032 110.668V4.53075C117.452 4.69982 109.905 6.55949 103.035 10.1098C96.3343 13.6263 90.2766 18.7657 85.471 25.562C84.5235 34.8604 85.1326 45.0041 86.7909 54.5392C88.5845 64.7505 91.5964 74.2518 95.319 81.3524C98.3987 87.1681 102.595 94.2687 107.841 100.051Z" fill="url(#paint3_linear_7172_1426)"/>
<g filter="url(#filter0_d_7172_1426)">
<path fill-rule="evenodd" clip-rule="evenodd" d="M125.31 67.771L126.486 70.0129L129.055 70.4757L127.269 72.2837L127.632 74.8727L125.353 73.7445L122.987 74.8727L123.379 72.3705L121.564 70.4757L124.061 70.0707L125.31 67.771Z" fill="url(#paint4_angular_7172_1426)"/>
</g>
<g filter="url(#filter1_d_7172_1426)">
<path fill-rule="evenodd" clip-rule="evenodd" d="M137.108 63.73L138.284 65.9719L140.853 66.4348L139.068 68.2427L139.431 70.8318L137.152 69.7036L134.785 70.8318L135.177 68.3295L133.363 66.4348L135.86 66.0298L137.108 63.73Z" fill="url(#paint5_angular_7172_1426)"/>
</g>
<g filter="url(#filter2_d_7172_1426)">
<path fill-rule="evenodd" clip-rule="evenodd" d="M147.431 55.6483L148.607 57.8902L151.176 58.353L149.391 60.161L149.754 62.75L147.475 61.6218L145.109 62.75L145.501 60.2478L143.686 58.353L146.183 57.948L147.431 55.6483Z" fill="url(#paint6_angular_7172_1426)"/>
</g>
<g filter="url(#filter3_d_7172_1426)">
<path fill-rule="evenodd" clip-rule="evenodd" d="M103.189 55.6483L104.364 57.8902L106.934 58.353L105.148 60.161L105.511 62.75L103.232 61.6218L100.866 62.75L101.258 60.2478L99.4434 58.353L101.94 57.948L103.189 55.6483Z" fill="url(#paint7_angular_7172_1426)"/>
</g>
<g filter="url(#filter4_d_7172_1426)">
<path fill-rule="evenodd" clip-rule="evenodd" d="M113.512 64.0974L114.688 66.3393L117.257 66.8021L115.472 68.6101L115.834 71.1991L113.555 70.071L111.189 71.1991L111.581 68.6969L109.767 66.8021L112.263 66.3972L113.512 64.0974Z" fill="url(#paint8_angular_7172_1426)"/>
</g>
<path fill-rule="evenodd" clip-rule="evenodd" d="M110.752 39.1543C112.603 42.6004 113.956 45.9059 114.027 49.1411C115.665 48.8598 117.374 48.5784 119.225 48.4378L118.442 42.1784H119.154L119.937 48.3675C121.29 48.2971 122.643 48.2268 124.067 48.2268C124.281 48.2268 124.495 48.2268 124.779 48.2268V40.6312H125.492V48.2268C127.129 48.2971 128.767 48.3675 130.262 48.5081L131.117 42.1081H131.829L130.975 48.5784C132.826 48.7894 134.606 49.1411 136.244 49.4927C136.244 46.1872 137.597 42.6707 139.519 39.0839C139.733 39.2246 140.018 39.3653 140.303 39.3653C140.944 39.3653 141.513 38.8026 141.513 38.1697C141.513 37.5367 140.944 36.974 140.303 36.974C139.662 36.974 139.092 37.5367 139.092 38.1697C139.092 38.5213 139.235 38.8026 139.448 39.0136C135.888 42.7411 133.253 43.4444 132.47 38.3806C132.541 38.3806 132.612 38.3806 132.683 38.3806C133.324 38.3806 133.894 37.818 133.894 37.185C133.894 36.5521 133.324 35.9894 132.683 35.9894C132.043 35.9894 131.473 36.5521 131.473 37.185C131.473 37.6773 131.758 38.0993 132.185 38.3103C129.622 42.2488 127.414 41.5455 125.776 35.9894C126.56 35.7081 127.129 34.9345 127.129 34.0202C127.129 32.8246 126.132 31.9103 124.993 31.9103C123.783 31.9103 122.857 32.8949 122.857 34.0202C122.857 35.0751 123.569 35.9191 124.566 36.1301C122.857 41.6158 120.721 42.2488 118.157 38.3103C118.584 38.0993 118.869 37.6773 118.869 37.2554C118.869 36.6224 118.3 36.0598 117.659 36.0598C117.018 36.0598 116.448 36.6224 116.448 37.2554C116.448 37.8883 117.018 38.451 117.659 38.451C117.73 38.451 117.872 38.451 117.944 38.451C117.089 43.5147 114.454 42.8817 110.752 39.1543C111.036 38.8729 111.108 38.5916 111.108 38.3103C111.108 37.6773 110.538 37.1147 109.897 37.1147C109.256 37.1147 108.687 37.6773 108.687 38.3103C108.687 38.9433 109.256 39.5059 109.897 39.5059C110.253 39.5059 110.538 39.3653 110.752 39.1543Z" fill="url(#paint9_linear_7172_1426)"/>
</g>
<defs>
<filter id="filter0_d_7172_1426" x="118.959" y="67.771" width="12.7005" height="12.312" filterUnits="userSpaceOnUse" color-interpolation-filters="sRGB">
<feFlood flood-opacity="0" result="BackgroundImageFix"/>
<feColorMatrix in="SourceAlpha" type="matrix" values="0 0 0 0 0 0 0 0 0 0 0 0 0 0 0 0 0 0 127 0" result="hardAlpha"/>
<feOffset dy="2.60513"/>
<feGaussianBlur stdDeviation="1.30256"/>
<feComposite in2="hardAlpha" operator="out"/>
<feColorMatrix type="matrix" values="0 0 0 0 0 0 0 0 0 0 0 0 0 0 0 0 0 0 0.25 0"/>
<feBlend mode="normal" in2="BackgroundImageFix" result="effect1_dropShadow_7172_1426"/>
<feBlend mode="normal" in="SourceGraphic" in2="effect1_dropShadow_7172_1426" result="shape"/>
</filter>
<filter id="filter1_d_7172_1426" x="130.758" y="63.73" width="12.7005" height="12.312" filterUnits="userSpaceOnUse" color-interpolation-filters="sRGB">
<feFlood flood-opacity="0" result="BackgroundImageFix"/>
<feColorMatrix in="SourceAlpha" type="matrix" values="0 0 0 0 0 0 0 0 0 0 0 0 0 0 0 0 0 0 127 0" result="hardAlpha"/>
<feOffset dy="2.60513"/>
<feGaussianBlur stdDeviation="1.30256"/>
<feComposite in2="hardAlpha" operator="out"/>
<feColorMatrix type="matrix" values="0 0 0 0 0 0 0 0 0 0 0 0 0 0 0 0 0 0 0.25 0"/>
<feBlend mode="normal" in2="BackgroundImageFix" result="effect1_dropShadow_7172_1426"/>
<feBlend mode="normal" in="SourceGraphic" in2="effect1_dropShadow_7172_1426" result="shape"/>
</filter>
<filter id="filter2_d_7172_1426" x="141.081" y="55.6483" width="12.7005" height="12.312" filterUnits="userSpaceOnUse" color-interpolation-filters="sRGB">
<feFlood flood-opacity="0" result="BackgroundImageFix"/>
<feColorMatrix in="SourceAlpha" type="matrix" values="0 0 0 0 0 0 0 0 0 0 0 0 0 0 0 0 0 0 127 0" result="hardAlpha"/>
<feOffset dy="2.60513"/>
<feGaussianBlur stdDeviation="1.30256"/>
<feComposite in2="hardAlpha" operator="out"/>
<feColorMatrix type="matrix" values="0 0 0 0 0 0 0 0 0 0 0 0 0 0 0 0 0 0 0.25 0"/>
<feBlend mode="normal" in2="BackgroundImageFix" result="effect1_dropShadow_7172_1426"/>
<feBlend mode="normal" in="SourceGraphic" in2="effect1_dropShadow_7172_1426" result="shape"/>
</filter>
<filter id="filter3_d_7172_1426" x="96.8382" y="55.6483" width="12.7005" height="12.312" filterUnits="userSpaceOnUse" color-interpolation-filters="sRGB">
<feFlood flood-opacity="0" result="BackgroundImageFix"/>
<feColorMatrix in="SourceAlpha" type="matrix" values="0 0 0 0 0 0 0 0 0 0 0 0 0 0 0 0 0 0 127 0" result="hardAlpha"/>
<feOffset dy="2.60513"/>
<feGaussianBlur stdDeviation="1.30256"/>
<feComposite in2="hardAlpha" operator="out"/>
<feColorMatrix type="matrix" values="0 0 0 0 0 0 0 0 0 0 0 0 0 0 0 0 0 0 0.25 0"/>
<feBlend mode="normal" in2="BackgroundImageFix" result="effect1_dropShadow_7172_1426"/>
<feBlend mode="normal" in="SourceGraphic" in2="effect1_dropShadow_7172_1426" result="shape"/>
</filter>
<filter id="filter4_d_7172_1426" x="107.161" y="64.0974" width="12.7005" height="12.312" filterUnits="userSpaceOnUse" color-interpolation-filters="sRGB">
<feFlood flood-opacity="0" result="BackgroundImageFix"/>
<feColorMatrix in="SourceAlpha" type="matrix" values="0 0 0 0 0 0 0 0 0 0 0 0 0 0 0 0 0 0 127 0" result="hardAlpha"/>
<feOffset dy="2.60513"/>
<feGaussianBlur stdDeviation="1.30256"/>
<feComposite in2="hardAlpha" operator="out"/>
<feColorMatrix type="matrix" values="0 0 0 0 0 0 0 0 0 0 0 0 0 0 0 0 0 0 0.25 0"/>
<feBlend mode="normal" in2="BackgroundImageFix" result="effect1_dropShadow_7172_1426"/>
<feBlend mode="normal" in="SourceGraphic" in2="effect1_dropShadow_7172_1426" result="shape"/>
</filter>
<linearGradient id="paint0_linear_7172_1426" x1="41.6704" y1="60.0035" x2="208.516" y2="60.0035" gradientUnits="userSpaceOnUse">
<stop stop-color="#C89749"/>
<stop offset="0.04" stop-color="#8E5523"/>
<stop offset="0.15" stop-color="#FFEE9D"/>
<stop offset="0.23" stop-color="#DEAC55"/>
<stop offset="0.51" stop-color="#E8C576"/>
<stop offset="0.81" stop-color="#DBAA4D"/>
<stop offset="0.86" stop-color="#FCF6B2"/>
<stop offset="0.95" stop-color="#8B5623"/>
<stop offset="1" stop-color="#CA983E"/>
</linearGradient>
<linearGradient id="paint1_linear_7172_1426" x1="127.547" y1="116.637" x2="125.49" y2="-1.27939" gradientUnits="userSpaceOnUse">
<stop stop-color="#DBA73E"/>
<stop offset="0.16" stop-color="#D89D3A"/>
<stop offset="0.3" stop-color="#A46B28"/>
<stop offset="0.49" stop-color="#8E5723"/>
<stop offset="0.54" stop-color="#F4F3B8"/>
<stop offset="0.56" stop-color="#F7ED9A"/>
<stop offset="0.69" stop-color="#D5B767"/>
<stop offset="0.75" stop-color="#A76F29"/>
<stop offset="0.85" stop-color="#D0AB5B"/>
<stop offset="1" stop-color="#E0C77D"/>
</linearGradient>
<linearGradient id="paint2_linear_7172_1426" x1="126.116" y1="129.044" x2="126.116" y2="-13.6994" gradientUnits="userSpaceOnUse">
<stop stop-color="#F4C761"/>
<stop offset="0.28" stop-color="#A97F2C"/>
<stop offset="0.36" stop-color="#230B0A"/>
<stop offset="0.46" stop-color="#6D4C1E"/>
<stop offset="0.51" stop-color="#1A0B05"/>
<stop offset="0.53" stop-color="#F8F1DE"/>
<stop offset="0.86" stop-color="#F3E3C2"/>
<stop offset="1" stop-color="#D0AB5B"/>
</linearGradient>
<linearGradient id="paint3_linear_7172_1426" x1="141.156" y1="116.067" x2="59.4156" y2="-76.6689" gradientUnits="userSpaceOnUse">
<stop stop-color="#D71818"/>
<stop offset="1" stop-color="#AD0000"/>
</linearGradient>
<radialGradient id="paint4_angular_7172_1426" cx="0" cy="0" r="1" gradientUnits="userSpaceOnUse" gradientTransform="translate(125.197 71.3218) rotate(90) scale(3.55086 3.63287)">
<stop offset="0.362857" stop-color="#D6DFE6"/>
<stop offset="0.370506" stop-color="#FAFBFC"/>
<stop offset="0.865074" stop-color="#D7E0E7"/>
<stop offset="0.871776" stop-color="#F7F8F9"/>
</radialGradient>
<radialGradient id="paint5_angular_7172_1426" cx="0" cy="0" r="1" gradientUnits="userSpaceOnUse" gradientTransform="translate(136.996 67.2809) rotate(90) scale(3.55086 3.63287)">
<stop offset="0.362857" stop-color="#D6DFE6"/>
<stop offset="0.370506" stop-color="#FAFBFC"/>
<stop offset="0.865074" stop-color="#D7E0E7"/>
<stop offset="0.871776" stop-color="#F7F8F9"/>
</radialGradient>
<radialGradient id="paint6_angular_7172_1426" cx="0" cy="0" r="1" gradientUnits="userSpaceOnUse" gradientTransform="translate(147.319 59.1991) rotate(90) scale(3.55086 3.63287)">
<stop offset="0.362857" stop-color="#D6DFE6"/>
<stop offset="0.370506" stop-color="#FAFBFC"/>
<stop offset="0.865074" stop-color="#D7E0E7"/>
<stop offset="0.871776" stop-color="#F7F8F9"/>
</radialGradient>
<radialGradient id="paint7_angular_7172_1426" cx="0" cy="0" r="1" gradientUnits="userSpaceOnUse" gradientTransform="translate(103.076 59.1991) rotate(90) scale(3.55086 3.63287)">
<stop offset="0.362857" stop-color="#D6DFE6"/>
<stop offset="0.370506" stop-color="#FAFBFC"/>
<stop offset="0.865074" stop-color="#D7E0E7"/>
<stop offset="0.871776" stop-color="#F7F8F9"/>
</radialGradient>
<radialGradient id="paint8_angular_7172_1426" cx="0" cy="0" r="1" gradientUnits="userSpaceOnUse" gradientTransform="translate(113.399 67.6483) rotate(90) scale(3.55086 3.63287)">
<stop offset="0.362857" stop-color="#D6DFE6"/>
<stop offset="0.370506" stop-color="#FAFBFC"/>
<stop offset="0.865074" stop-color="#D7E0E7"/>
<stop offset="0.871776" stop-color="#F7F8F9"/>
</radialGradient>
<linearGradient id="paint9_linear_7172_1426" x1="125.12" y1="46.9365" x2="125.12" y2="34.6356" gradientUnits="userSpaceOnUse">
<stop stop-color="#DBA73E"/>
<stop offset="0.16" stop-color="#D89D3A"/>
<stop offset="0.54" stop-color="#F4F3B8"/>
<stop offset="0.56" stop-color="#F7ED9A"/>
<stop offset="0.69" stop-color="#D5B767"/>
<stop offset="0.85" stop-color="#D0AB5B"/>
<stop offset="1" stop-color="#E0C77D"/>
</linearGradient>
<clipPath id="clip0_7172_1426">
<rect width="124.2" height="120" fill="white" transform="translate(63)"/>
</clipPath>
</defs>
</svg>
