<svg width="248" height="120" viewBox="0 0 248 120" fill="none" xmlns="http://www.w3.org/2000/svg">
<path fill-rule="evenodd" clip-rule="evenodd" d="M105.406 36.6818C107.437 34.1643 109.849 32.4507 113.001 32.4507C116.407 32.4507 119.813 34.6721 119.855 41.6956C119.855 49.3962 115.011 57.6044 107.945 57.6044C105.66 57.6468 103.502 56.589 102.148 54.7485C100.773 56.5255 98.2135 57.2237 95.8018 57.2237L98.9751 31.0545C99.6309 25.6387 103.037 22 107.226 22L105.406 36.6607V36.6818ZM106.908 52.2521C109.214 52.2521 111.605 49.3327 112.345 45.0382C113.086 40.7225 112.155 37.9934 110.103 37.9934C108.008 37.9934 105.999 41.1667 105.152 43.1553C104.306 45.144 104.031 47.4499 103.587 51.2155C103.587 51.2155 104.602 52.2521 106.908 52.2521ZM132.57 33.022H137.499L137.351 33.9316C137.034 36.4703 135.257 37.9935 133.734 37.9935H132.189L130.032 55.8697C129.376 61.1797 126.414 64.8396 121.781 65.0088C121.728 65.0088 121.67 65.0036 121.612 64.9983C121.554 64.993 121.495 64.9877 121.443 64.9877L122.289 60.8835L125.06 37.9935H121.76L121.866 37.1473C122.162 34.8413 123.939 33.022 125.547 33.022H125.652L125.674 32.8739C126.477 26.358 129.587 22.0846 139.488 22.1481C139.488 22.1481 139.023 24.7925 138.875 25.5541C138.684 26.5273 137.923 27.4158 136.209 27.585C133.691 27.8601 132.93 29.5525 132.591 32.7681L132.57 33.022ZM138.007 55.5946L142.153 22.148C145.347 22.148 148.838 25.7867 148.119 31.6467L145.728 50.8346C145.136 55.7638 141.963 59.6775 137.499 59.741C137.446 59.741 137.388 59.7357 137.33 59.7304C137.271 59.7251 137.213 59.7199 137.16 59.7199L138.007 55.5946ZM65.1269 40.1513C65.1269 40.1513 62.2709 49.1211 62.0382 49.8616C61.9536 49.1 59.8592 33.0008 59.8592 33.0008C54.9934 33.0008 52.3913 36.4702 51.0162 40.1301C51.0162 40.1301 47.5468 49.1211 47.2506 49.8827C47.2294 49.1846 46.7217 40.2359 46.7217 40.2359C46.4255 35.751 42.3214 33.0219 39 33.0219L43.0195 57.414C48.118 57.3929 50.8682 53.9446 52.3067 50.2847C52.3067 50.2847 55.3742 42.3514 55.5012 41.9918C55.5223 42.3303 57.7013 57.414 57.7013 57.414C62.8209 57.414 65.5711 54.1773 67.052 50.6443L74.2237 33.0219C69.1675 33.0219 66.502 36.4702 65.1269 40.1513ZM94.2155 38.8186C94.2155 35.7511 91.2326 32.4932 86.0707 32.4932C80.2742 32.4932 73.9064 36.7454 72.9332 45.2287C71.9389 53.7966 77.2701 57.6046 82.6436 57.6046C88.017 57.6046 90.8307 55.5102 93.7078 52.7177C91.2326 49.6079 88.0382 51.0464 87.4247 51.3638C86.4092 51.935 85.2668 52.21 84.1033 52.1677C82.03 52.1677 79.9145 51.2368 79.9145 47.3654C93.2001 46.0538 94.2155 41.8862 94.2155 38.8186ZM87.6362 39.3264C87.5516 40.2784 87.1708 41.9073 80.4434 42.817C81.8608 37.782 84.5687 37.4012 85.8169 37.4012C86.79 37.3589 87.6151 38.1205 87.6362 39.0937V39.3264ZM197.857 49.8616C198.09 49.1211 200.945 40.1513 200.945 40.1513C202.299 36.4702 204.965 33.0219 210 33.0219L202.828 50.6443C201.347 54.1773 198.597 57.414 193.478 57.414C193.478 57.414 191.299 42.3303 191.277 41.9918C191.172 42.3514 188.104 50.2847 188.104 50.2847C186.666 53.9446 183.915 57.3929 178.817 57.414L174.819 33.0219C178.14 33.0219 182.244 35.751 182.54 40.2359C182.54 40.2359 183.048 49.1846 183.069 49.8827C183.365 49.1211 186.835 40.1301 186.835 40.1301C188.21 36.4702 190.812 33.0008 195.678 33.0008C195.678 33.0008 197.772 49.1 197.857 49.8616ZM163.14 32.5989C157.449 32.5989 152.075 36.7877 150.425 43.367C148.775 49.9463 151.272 57.7315 159.649 57.7315C168.027 57.7315 172.829 49.629 172.829 42.8804C172.829 36.1742 168.28 32.5989 163.14 32.5989ZM165.446 44.8267C165.149 47.8096 163.838 52.3368 160.241 52.3368C156.645 52.3368 157.132 47.048 157.491 44.5305C157.872 41.8438 159.374 38.0147 162.611 38.0147C165.509 38.0147 165.784 41.463 165.446 44.8267ZM89.2163 84.0776H82.0496V91.0756H91.4253V92.9811H79.6888V73.6901H90.9531V75.6125H82.0496V82.1721H89.2163V84.0776ZM105.676 78.8671H103.247L99.8243 84.0102L96.3675 78.8671H93.7537L98.4753 85.7302L93.4334 92.9812H95.8279L99.7232 87.2985L103.517 92.9812H106.165L101.005 85.5616L105.676 78.8671ZM111.425 81.2446C112.234 79.8787 114.14 78.6309 116.197 78.6309C119.89 78.6309 122.622 81.3289 122.622 85.7301V85.9493C122.622 90.2662 120.075 93.234 116.197 93.234C113.887 93.234 112.234 92.0705 111.425 90.6709V97.8881H109.182V78.8669H111.425V81.2446ZM115.978 91.3622C118.777 91.3622 120.295 89.4736 120.295 86.0505H120.312V85.8313C120.312 82.2732 118.339 80.4858 115.961 80.4858C113.33 80.4858 111.341 82.2226 111.341 85.8313V86.0505C111.341 89.6591 113.229 91.3622 115.978 91.3622ZM131.66 78.6309C127.782 78.6309 125.05 81.5987 125.05 85.865V86.0842C125.05 90.4348 127.883 93.234 131.879 93.234C135.066 93.234 137.41 91.7501 137.899 88.9171H135.657C135.353 90.5697 134.088 91.3791 131.913 91.3791C129.03 91.3791 127.495 89.5916 127.377 86.3877H138.001V85.6458C138.001 80.6038 134.932 78.6309 131.66 78.6309ZM127.444 84.5666C127.815 82.054 129.367 80.4858 131.66 80.4858C133.987 80.4858 135.488 81.6493 135.707 84.5666H127.444ZM143.667 78.8838V81.4132C144.56 79.8113 145.774 78.7152 148.304 78.6309V80.7387C145.471 80.8736 143.667 81.7673 143.667 85.2411V92.9979H141.424V78.8838H143.667ZM154.424 89.2376V80.7725H157.712V78.8839H154.424V75.6799H152.181V78.8839H150.158V80.7725H152.181V89.4568C152.181 91.6658 153.429 93.1835 155.992 93.1835C156.65 93.2003 157.291 93.0991 157.915 92.8799V90.9913C157.358 91.1937 156.785 91.2948 156.195 91.2948C155.048 91.2948 154.424 90.6203 154.424 89.2376ZM162.585 82.5094C162.585 83.7742 163.277 84.2969 165.874 84.7522C168.791 85.2918 170.831 85.9494 170.831 88.9173C170.831 91.4804 169.078 93.2004 165.654 93.2004C162.282 93.2004 160.258 91.4973 160.123 88.6138H162.316C162.484 90.3 163.378 91.3455 165.638 91.3455C167.762 91.3455 168.707 90.6204 168.707 89.1028C168.707 87.6189 167.61 87.1298 165.418 86.7251C161.759 86.0506 160.511 85.0389 160.511 82.5769C160.511 79.9632 163.074 78.6142 165.283 78.6142C167.813 78.6142 170.005 79.6428 170.376 82.6949H168.218C167.897 81.1604 167.037 80.4859 165.25 80.4859C163.631 80.4859 162.585 81.2953 162.585 82.5094Z" fill="#4353FF"/>
</svg>
