<svg width="250" height="120" viewBox="0 0 250 120" fill="none" xmlns="http://www.w3.org/2000/svg">
<g clip-path="url(#clip0_7172_917)">
<path d="M124.653 2.9311C137.718 2.93974 150.377 7.51133 160.471 15.867C170.566 24.2227 177.473 35.8455 180.015 48.7554C182.556 61.6653 180.576 75.0635 174.411 86.6675C168.245 98.2715 158.277 107.363 146.204 112.394C134.13 117.425 120.698 118.083 108.197 114.257C95.6957 110.431 84.898 102.357 77.6433 91.4113C70.3887 80.4652 67.1261 67.324 68.4113 54.2266C69.6965 41.1291 75.45 28.8856 84.6916 19.582C89.9316 14.2823 96.162 10.0811 103.023 7.22092C109.884 4.36076 117.24 2.89839 124.665 2.91828M124.665 0.354637C92.0382 0.354637 65.5913 26.9525 65.5913 59.7458C65.5913 92.5391 92.0255 119.21 124.653 119.21C157.28 119.21 183.726 92.6117 183.726 59.8184C183.726 27.0251 157.28 0.367455 124.653 0.367455L124.665 0.354637Z" fill="#4385F4"/>
<path d="M124.593 114.877C154.815 114.877 179.311 90.2361 179.311 59.8398C179.311 29.4435 154.815 4.80684 124.593 4.80684C94.3712 4.80684 69.8755 29.4478 69.8755 59.8398C69.8755 90.2318 94.3755 114.877 124.593 114.877Z" stroke="#4385F4" stroke-width="2" stroke-miterlimit="10" stroke-dasharray="4 4"/>
<path d="M128.958 60.3397H122.256L123.402 57.8871L124.39 55.5884H126.829L127.817 57.8871L128.958 60.3397Z" fill="#FF7058"/>
<path d="M133.221 60.3397H117.993C117.591 60.3408 117.205 60.5022 116.919 60.7887C116.634 61.0752 116.473 61.4636 116.471 61.8693V66.8471H134.672V61.8693C134.685 61.6707 134.658 61.4714 134.591 61.2842C134.523 61.097 134.418 60.9259 134.282 60.7819C134.145 60.638 133.98 60.5243 133.798 60.4481C133.615 60.372 133.419 60.3351 133.221 60.3397Z" fill="#FFD15C"/>
<mask id="mask0_7172_917" style="mask-type:luminance" maskUnits="userSpaceOnUse" x="123" y="55" width="5" height="4">
<path d="M127.817 57.8871C127.223 58.2037 126.612 58.4889 125.989 58.7417L125.607 58.8186L125.23 58.6648C124.606 58.4128 123.995 58.1276 123.401 57.8102L124.39 55.5115H126.748L127.817 57.8871Z" fill="white"/>
</mask>
<g mask="url(#mask0_7172_917)">
<path d="M129.938 53.3751H121.281V60.9421H129.938V53.3751Z" fill="#F1543F"/>
</g>
<path d="M137.488 30.0844H113.735C113.493 30.0877 113.262 30.186 113.09 30.3584C112.919 30.5307 112.822 30.7636 112.818 31.0073C112.813 31.1335 112.832 31.2596 112.875 31.3782C112.918 31.4968 112.984 31.6056 113.07 31.6982C113.155 31.7909 113.258 31.8655 113.372 31.9178C113.486 31.9701 113.609 31.999 113.735 32.0028H137.488C137.729 31.9984 137.959 31.8996 138.13 31.7274C138.3 31.5551 138.397 31.3229 138.4 31.0799C138.406 30.9541 138.387 30.8284 138.344 30.71C138.301 30.5917 138.235 30.4831 138.15 30.3905C138.066 30.2979 137.963 30.2232 137.85 30.1706C137.736 30.1181 137.613 30.0888 137.488 30.0844ZM107.334 34.2973V37.4378C107.346 41.0837 108.431 44.6443 110.45 47.67C112.47 50.6958 115.333 53.0512 118.68 54.439C123.119 56.2792 128.099 56.2792 132.538 54.439C135.885 53.0512 138.749 50.6958 140.768 47.67C142.788 44.6443 143.872 41.0837 143.885 37.4378V34.2973H107.334ZM140.843 37.4378C140.844 40.9943 139.604 44.438 137.34 47.1668C135.909 48.9049 134.117 50.3059 132.091 51.2715C130.065 52.237 127.853 52.7436 125.611 52.7556C123.368 52.7605 121.151 52.2614 119.123 51.2946C117.095 50.3278 115.306 48.9177 113.887 47.1668C111.641 44.4274 110.404 40.9906 110.384 37.4378V37.3609H140.767V37.4378H140.843Z" fill="#F8B64C"/>
<path d="M137.488 32.0028V40.2706C137.482 44.0375 136.344 47.7143 134.224 50.8174C132.104 53.9206 129.102 56.3047 125.611 57.6564C122.118 56.2877 119.115 53.8894 116.996 50.7747C114.877 47.6599 113.741 43.9738 113.734 40.198V32.0028H137.488Z" fill="#FFD15C"/>
<mask id="mask1_7172_917" style="mask-type:luminance" maskUnits="userSpaceOnUse" x="113" y="32" width="25" height="2">
<path d="M137.412 32.0028H113.73V33.1522H137.412V32.0028Z" fill="white"/>
</mask>
<g mask="url(#mask1_7172_917)">
<path d="M139.533 29.8665H111.61V35.2886H139.533V29.8665Z" fill="#FFC952"/>
</g>
<path d="M124.564 40.7192C124.564 40.7192 123.881 40.6509 123.881 41.2576V43.9537H128.381V44.7613C128.384 44.8171 128.375 44.873 128.354 44.9249C128.333 44.9768 128.302 45.0237 128.262 45.0622C128.221 45.1007 128.173 45.1301 128.121 45.1482C128.068 45.1663 128.012 45.1728 127.957 45.1672H123.885V48.6708H128.805C128.805 48.6708 131.775 48.2136 131.804 45.1672V40.7192H124.564ZM131.537 36.3525H122.782C119.614 37.1088 119.546 39.7707 119.546 39.7707V48.6922H122.939V40.574C122.938 40.3811 123.001 40.1934 123.119 40.0413C123.237 39.8893 123.402 39.7818 123.588 39.7365H131.541L131.537 36.3525Z" fill="white"/>
<path opacity="0.5" d="M97.0521 102.221L97.0054 102.191C97.0054 102.191 97.0224 102.204 97.0521 102.221ZM90.5326 96.8845L90.4987 96.8503C90.4987 96.8503 90.5114 96.8674 90.5326 96.8845ZM76.6538 61.3395V61.3139C76.6538 61.3139 76.6538 61.3267 76.6538 61.3438V61.3395ZM77.3282 53.9733C77.3282 53.9434 77.3282 53.9263 77.3282 53.9306C77.3282 53.9348 77.324 53.9519 77.3282 53.9776V53.9733ZM78.868 46.7096C78.868 46.7096 78.868 46.7096 78.868 46.7096Z" fill="#4385F4"/>
<g opacity="0.5">
<path d="M123.567 104.165C119.398 104.354 115.227 103.852 111.219 102.678C112.653 100.807 110.286 98.9439 108.017 97.1494L103.262 93.5731C103.207 93.6158 106.062 96.4785 105.807 98.9738C105.715 99.5413 105.73 100.121 105.854 100.683C105.205 100.38 104.581 100.068 103.937 99.7344C105.603 98.1236 103.716 95.8163 101.9 93.6286C99.9833 91.4196 98.049 89.2533 98.0448 89.2491C98.0406 89.2448 100.166 92.616 99.4615 95.0728C99.2721 95.6218 99.183 96.2009 99.1985 96.7819C98.6344 96.3546 98.083 95.953 97.5485 95.5001C99.4234 94.167 98.0575 91.535 96.7002 89.0653C95.275 86.5572 93.8031 84.1218 93.8031 84.1175C93.8031 84.1132 95.2368 87.7792 94.1085 90.125C93.8272 90.6431 93.6391 91.2072 93.5529 91.7913C93.0863 91.29 92.6338 90.7816 92.1955 90.266C94.2018 89.2277 93.4214 86.4205 92.5688 83.7458C91.6229 81.0326 90.6049 78.4903 90.6134 78.4518C90.6219 78.4134 91.3726 82.2631 89.8626 84.4337C89.4958 84.9056 89.2091 85.4355 89.0143 86.0018C88.6523 85.4321 88.3045 84.8624 87.9708 84.2927C90.0916 83.5407 89.8329 80.6523 89.4554 77.9178C88.9931 75.1234 88.4247 72.4914 88.4247 72.4615C88.4247 72.4315 88.5477 76.3069 86.7025 78.2126C86.2708 78.6279 85.9072 79.1096 85.6252 79.6397C85.4597 79.2508 85.2943 78.862 85.1374 78.4689C85.0186 78.1656 84.8998 77.8622 84.7895 77.5546C86.9401 77.1529 87.131 74.4141 87.1903 71.8163C87.1903 69.1629 87.0376 66.6548 87.0249 66.6292C87.0122 66.6035 86.6007 70.1884 84.569 71.7565C84.096 72.0888 83.6793 72.4956 83.3346 72.9614C83.1226 72.141 82.9105 71.3206 82.7663 70.4917C84.8871 70.4319 85.4767 67.9281 85.8966 65.4969C86.3165 63.0657 86.4692 60.673 86.448 60.673C86.4268 60.673 85.5997 63.9074 83.4789 65.0696C82.9759 65.3235 82.5174 65.6583 82.1215 66.0609C82.0197 65.1266 81.9448 64.1908 81.8967 63.2537C83.9412 63.5015 84.8108 61.2455 85.5106 59.0536C85.9463 57.6061 86.3088 56.1372 86.5965 54.6527C86.571 54.6527 85.4046 57.5496 83.271 58.3443C82.7578 58.5136 82.2762 58.7678 81.8458 59.0963C81.8713 58.2631 81.9137 57.4299 81.9731 56.6053C81.9731 56.4088 82.007 56.2122 82.0197 56.0199C83.8649 56.5369 85.0143 54.533 85.8966 52.6017C86.7789 50.6705 87.4024 48.6238 87.4024 48.6195C87.4024 48.6153 85.973 51.1832 83.8861 51.6404C83.395 51.7252 82.9208 51.8897 82.4821 52.1275C82.6517 51.0379 82.8596 49.9526 83.0971 48.8716C84.7174 49.5339 85.9984 47.8462 87.0079 46.1584C87.6816 44.9884 88.2932 43.7832 88.8403 42.548C88.8403 42.548 87.237 44.8339 85.2646 44.9792C84.8401 44.9966 84.4209 45.0802 84.0218 45.227C84.3442 44.1047 84.7005 42.9824 85.0907 41.8601C86.465 42.5651 87.7884 41.1722 88.8743 39.7237C89.6344 38.6682 90.334 37.5697 90.9697 36.4337C90.9697 36.4337 89.2391 38.4846 87.4151 38.365C87.078 38.3361 86.7386 38.3519 86.4056 38.412C86.8552 37.3238 87.3346 36.2329 87.8436 35.139L87.9326 34.9254C89.0736 35.6347 90.3928 34.4981 91.5253 33.2163C92.3617 32.2439 93.1474 31.2285 93.8795 30.1741C93.8795 30.1741 92.0131 32.0456 90.3801 31.7166C90.0458 31.6345 89.7005 31.6085 89.3578 31.6397C90.492 29.2094 91.7667 26.8482 93.1754 24.5683C91.5847 26.9183 90.1722 29.2256 88.9337 31.5115C88.7871 31.0981 88.5798 30.7092 88.3186 30.3578C87.7969 29.6486 87.7842 28.5035 87.9708 27.525C88.0881 26.9162 88.2658 26.3207 88.501 25.7476C87.6585 27.1156 86.9848 28.582 86.4947 30.1143C85.8457 32.2763 85.8669 34.3229 87.343 34.5793C86.7534 35.7757 86.2147 36.9763 85.7142 38.1684C85.5085 37.8352 85.262 37.5295 84.9804 37.2583C84.306 36.6131 84.1321 35.468 84.1618 34.4725C84.1889 33.8517 84.2827 33.2356 84.4417 32.6352C83.7592 34.1045 83.2647 35.655 82.9699 37.2498C82.6051 39.4374 82.8765 41.4798 84.3823 41.6464C84.0006 42.746 83.6514 43.8455 83.3346 44.945C83.0818 44.667 82.797 44.4203 82.4863 44.2101C80.849 43.1547 81.1714 39.8647 81.2308 39.6169C80.7154 41.1919 80.4059 42.8279 80.3103 44.4835C80.2212 46.7395 80.7642 48.7947 82.3378 48.8118C82.3378 48.8118 82.3378 48.8118 82.3378 48.8375C82.1258 49.843 81.9391 50.8556 81.7779 51.8754C81.4755 51.6372 81.1467 51.435 80.7981 51.2729C78.936 50.4184 78.8385 47.0002 78.8682 46.731C78.5314 48.4262 78.4215 50.1593 78.5415 51.8839C78.7451 54.2425 79.5935 56.3233 81.2605 56.1011C81.1841 57.0497 81.1304 57.9982 81.0993 58.9468C80.7433 58.729 80.3632 58.554 79.9667 58.4255C77.9435 57.7974 77.3581 54.4262 77.3284 54.0032C77.2056 55.8068 77.3226 57.6188 77.6762 59.3911C78.1768 61.8266 79.4493 63.9715 81.1502 63.4332C81.1954 64.3048 81.2661 65.1764 81.3623 66.0481C80.942 65.847 80.4969 65.7033 80.0389 65.6208C77.795 65.2491 76.7134 61.6771 76.6455 61.3481C76.7627 63.2814 77.1438 65.1894 77.778 67.018C78.6688 69.5517 80.3485 71.6753 82.0833 70.7438C82.2488 71.5385 82.4312 72.3333 82.639 73.1237C82.1413 72.9594 81.6228 72.8673 81.0993 72.8503C78.6476 72.7819 76.9764 69.0304 76.9212 68.7997C77.325 70.8357 78.0133 72.8036 78.9657 74.6448C80.3188 77.2384 82.4609 79.2722 84.149 77.8921C84.412 78.5928 84.6948 79.2865 84.9974 79.9729C84.4307 79.8588 83.8501 79.8314 83.2753 79.8918C80.6666 80.1823 78.2913 76.3625 78.2658 76.2215C79.0024 78.3196 80.043 80.2965 81.3538 82.0879C83.2201 84.6516 85.8542 86.4931 87.3812 84.6943C87.7205 85.264 88.074 85.8337 88.4416 86.4034C87.8616 86.37 87.2798 86.4233 86.7153 86.5615C84.1151 87.2281 81.0696 83.6261 81.1205 83.5706C82.1837 85.5784 83.5503 87.4077 85.1713 88.9927C87.4703 91.2786 90.4267 92.7228 91.6568 90.7018C92.081 91.2231 92.5603 91.7401 93.0354 92.2443C92.4531 92.295 91.8814 92.4318 91.3387 92.6502C88.9337 93.6842 85.5403 90.924 85.218 90.5822C86.6377 92.4099 88.3187 94.0154 90.2062 95.3463C92.976 97.2775 96.1785 98.1663 97.0777 96.0427C97.6235 96.4928 98.189 96.9201 98.7744 97.3246C98.1795 97.4639 97.6079 97.6899 97.0777 97.9954C94.8551 99.3285 90.9273 97.1622 90.5285 96.8674C92.2914 98.4489 94.2768 99.7591 96.4202 100.756C99.5803 102.204 103.012 102.52 103.542 100.328C104.178 100.67 104.815 100.991 105.493 101.298C104.927 101.532 104.398 101.846 103.92 102.23C101.905 103.9 97.557 102.452 97.048 102.23C99.1401 103.496 101.409 104.438 103.78 105.024C107.254 105.879 110.817 105.562 110.99 103.366C115.051 104.565 119.281 105.073 123.508 104.87L123.567 104.165Z" fill="#4385F4"/>
</g>
<path d="M141.106 94.0004C141.213 93.8566 141.269 93.6802 141.263 93.5004C141.263 93.4663 141.263 93.4022 141.263 93.3039C141.263 93.2056 141.263 93.1373 141.263 93.1031C141.269 92.9226 141.212 92.7459 141.102 92.6032C141.049 92.5434 140.984 92.4968 140.91 92.4671C140.836 92.4374 140.757 92.4255 140.678 92.4323C140.599 92.4261 140.519 92.4384 140.446 92.468C140.372 92.4976 140.307 92.5439 140.254 92.6032C140.145 92.7465 140.09 92.9232 140.097 93.1031V93.3039V93.5004C140.09 93.681 140.148 93.858 140.258 94.0004C140.312 94.0584 140.378 94.1035 140.451 94.1323C140.525 94.1611 140.603 94.173 140.682 94.167C140.761 94.1733 140.84 94.1616 140.913 94.1327C140.987 94.1039 141.053 94.0586 141.106 94.0004ZM139.766 94.3806C139.654 94.2687 139.565 94.1356 139.505 93.9889C139.444 93.8422 139.413 93.6849 139.414 93.5261V93.0774C139.413 92.9183 139.445 92.7606 139.506 92.6139C139.567 92.4671 139.657 92.3342 139.77 92.2229C140.035 92.0235 140.357 91.9158 140.688 91.9158C141.019 91.9158 141.341 92.0235 141.607 92.2229C141.72 92.3342 141.809 92.4671 141.871 92.6139C141.932 92.7606 141.963 92.9183 141.963 93.0774C141.963 93.1159 141.963 93.1928 141.963 93.3039C141.963 93.415 141.963 93.4876 141.963 93.5261C141.964 93.685 141.934 93.8426 141.873 93.9894C141.813 94.1363 141.724 94.2693 141.611 94.3806C141.344 94.5801 141.021 94.6878 140.688 94.6878C140.356 94.6878 140.033 94.5801 139.766 94.3806ZM136.856 94.3806C136.743 94.2695 136.654 94.1364 136.593 93.9896C136.533 93.8427 136.502 93.6851 136.504 93.5261V93.321V93.1159C136.503 92.957 136.534 92.7996 136.594 92.6528C136.655 92.5061 136.744 92.373 136.856 92.2613C137.103 92.0453 137.424 91.9335 137.751 91.9494C137.985 91.9425 138.217 91.9908 138.43 92.0904C138.598 92.1691 138.744 92.2896 138.854 92.4408C138.936 92.5581 138.986 92.6952 138.998 92.8382C139 92.8548 138.998 92.8715 138.992 92.8871C138.986 92.9027 138.976 92.9166 138.964 92.9279C138.94 92.9498 138.908 92.9619 138.875 92.9621H138.425C138.398 92.9706 138.368 92.9706 138.341 92.9621C138.318 92.9374 138.301 92.9083 138.29 92.8766C138.252 92.765 138.183 92.667 138.09 92.5946C137.996 92.5334 137.885 92.5035 137.772 92.5092C137.694 92.5003 137.614 92.5104 137.541 92.5387C137.467 92.5669 137.401 92.6124 137.348 92.6715C137.24 92.8163 137.184 92.9945 137.191 93.1757V93.5346C137.214 93.979 137.4 94.2012 137.751 94.2012C137.864 94.2053 137.977 94.1755 138.073 94.1157C138.165 94.0418 138.233 93.9422 138.268 93.8294C138.279 93.7987 138.296 93.7709 138.319 93.7483C138.343 93.729 138.374 93.7198 138.404 93.7226H138.854C138.887 93.7228 138.918 93.7349 138.943 93.7568C138.955 93.7681 138.965 93.782 138.97 93.7976C138.976 93.8132 138.979 93.8299 138.977 93.8465C138.964 93.9847 138.916 94.1172 138.837 94.2311C138.73 94.3865 138.583 94.5103 138.413 94.59C138.199 94.6952 137.963 94.7465 137.726 94.7395C137.405 94.7362 137.097 94.6111 136.864 94.3892L136.856 94.3806ZM135.299 94.6071C135.288 94.5958 135.28 94.5824 135.274 94.5678C135.268 94.5531 135.265 94.5374 135.265 94.5216V94.0004C135.264 93.9838 135.266 93.9671 135.272 93.9515C135.278 93.9358 135.287 93.9217 135.299 93.9099C135.31 93.8981 135.324 93.889 135.34 93.8833C135.355 93.8775 135.372 93.8752 135.388 93.8764H135.902C135.917 93.8762 135.933 93.8791 135.947 93.885C135.962 93.8909 135.975 93.8996 135.986 93.9106C135.999 93.9222 136.008 93.9361 136.015 93.9515C136.021 93.967 136.025 93.9836 136.025 94.0004V94.5174C136.025 94.5332 136.022 94.5488 136.016 94.5635C136.01 94.5782 136.002 94.5915 135.991 94.6028C135.98 94.6156 135.966 94.6258 135.951 94.6324C135.935 94.6391 135.918 94.6421 135.902 94.6413H135.388C135.371 94.6448 135.352 94.6444 135.335 94.6399C135.317 94.6355 135.301 94.6272 135.287 94.6156L135.299 94.6071ZM132.945 94.5772C132.797 94.5172 132.665 94.4236 132.559 94.3037C132.49 94.2301 132.447 94.1354 132.436 94.0345C132.435 94.0196 132.437 94.0047 132.442 93.9906C132.447 93.9766 132.455 93.9639 132.466 93.9534C132.488 93.9324 132.516 93.9202 132.546 93.9192H132.971C132.985 93.9201 132.999 93.9245 133.012 93.9319C133.024 93.9394 133.035 93.9496 133.043 93.9619L133.157 94.0602C133.285 94.169 133.448 94.2268 133.615 94.2225C133.731 94.2276 133.845 94.201 133.946 94.1456C133.986 94.1221 134.019 94.0882 134.041 94.0477C134.063 94.0071 134.075 93.9613 134.073 93.9149C134.076 93.8537 134.054 93.7941 134.014 93.7483C133.955 93.694 133.884 93.6545 133.806 93.6329C133.658 93.5824 133.506 93.5411 133.352 93.509C133.119 93.4746 132.899 93.3771 132.716 93.227C132.647 93.1644 132.592 93.0871 132.556 93.0006C132.52 92.9141 132.504 92.8207 132.508 92.7271C132.51 92.588 132.553 92.4526 132.631 92.3383C132.725 92.2089 132.85 92.107 132.996 92.0434C133.177 91.9622 133.375 91.9227 133.573 91.9281C133.776 91.9224 133.978 91.9587 134.167 92.0349C134.312 92.0942 134.442 92.1846 134.549 92.2998C134.621 92.3734 134.666 92.47 134.676 92.5733C134.676 92.5875 134.674 92.6016 134.669 92.6149C134.664 92.6281 134.656 92.6401 134.646 92.6502C134.636 92.6613 134.623 92.6701 134.609 92.676C134.596 92.6819 134.581 92.6847 134.566 92.6843H134.184C134.168 92.6856 134.151 92.6827 134.136 92.676C134.122 92.6692 134.109 92.6589 134.099 92.6459C134.059 92.6156 134.02 92.5828 133.984 92.5476C133.93 92.504 133.87 92.468 133.806 92.4408C133.733 92.4096 133.653 92.395 133.573 92.3981C133.47 92.3889 133.368 92.4178 133.285 92.4793C133.252 92.5051 133.226 92.5383 133.208 92.5761C133.19 92.6139 133.182 92.6554 133.183 92.6972C133.18 92.7524 133.196 92.8068 133.229 92.851C133.285 92.9035 133.352 92.9429 133.424 92.9664C133.563 93.0127 133.705 93.0484 133.849 93.0732C134.459 93.1928 134.765 93.462 134.765 93.8807C134.766 93.9976 134.738 94.1129 134.683 94.216C134.628 94.319 134.548 94.4065 134.451 94.4704C134.19 94.6351 133.885 94.7142 133.577 94.6968C133.357 94.7056 133.137 94.6677 132.932 94.5857L132.945 94.5772ZM128.021 94.6071C128.01 94.5958 128.001 94.5824 127.995 94.5678C127.989 94.5531 127.986 94.5374 127.987 94.5216V92.099C127.987 92.0659 127.999 92.034 128.021 92.0093C128.046 91.9886 128.077 91.9779 128.11 91.9793H128.508C128.524 91.978 128.541 91.9799 128.556 91.9851C128.571 91.9902 128.585 91.9984 128.597 92.0093C128.609 92.021 128.618 92.0351 128.624 92.0505C128.63 92.066 128.632 92.0825 128.631 92.099V92.2913C128.718 92.1789 128.831 92.0889 128.959 92.0288C129.087 91.9686 129.228 91.94 129.369 91.9452C129.531 91.9314 129.693 91.9674 129.834 92.0482C129.975 92.1291 130.088 92.2511 130.158 92.3981C130.244 92.2596 130.364 92.1462 130.506 92.0691C130.654 91.9853 130.821 91.9425 130.99 91.9452C131.117 91.9411 131.244 91.9645 131.362 92.0139C131.48 92.0633 131.586 92.1374 131.673 92.2314C131.862 92.4658 131.955 92.7634 131.936 93.0646V94.5387C131.936 94.5545 131.933 94.5702 131.927 94.5849C131.921 94.5995 131.913 94.6129 131.902 94.6242C131.891 94.637 131.877 94.6471 131.862 94.6538C131.846 94.6604 131.829 94.6635 131.813 94.6626H131.388C131.372 94.6626 131.355 94.6592 131.34 94.6526C131.325 94.646 131.311 94.6363 131.299 94.6242C131.288 94.6129 131.28 94.5995 131.274 94.5849C131.268 94.5702 131.265 94.5545 131.265 94.5387V93.1074C131.28 92.9404 131.231 92.7742 131.13 92.6416C131.085 92.5932 131.03 92.5551 130.97 92.53C130.909 92.505 130.843 92.4935 130.778 92.4963C130.714 92.4958 130.651 92.5084 130.593 92.5334C130.535 92.5584 130.482 92.5953 130.438 92.6416C130.334 92.7729 130.284 92.9397 130.298 93.1074V94.5387C130.299 94.5545 130.296 94.5702 130.29 94.5849C130.284 94.5995 130.275 94.6129 130.264 94.6242C130.253 94.637 130.24 94.6471 130.224 94.6538C130.209 94.6604 130.192 94.6635 130.175 94.6626H129.751C129.719 94.6606 129.689 94.6469 129.666 94.6241C129.644 94.6013 129.63 94.5709 129.628 94.5387V93.1074C129.644 92.9403 129.595 92.7736 129.492 92.6416C129.447 92.5943 129.392 92.5569 129.331 92.5319C129.271 92.5069 129.206 92.4948 129.14 92.4963C129.077 92.4961 129.014 92.5088 128.956 92.5338C128.898 92.5588 128.845 92.5955 128.801 92.6416C128.697 92.7729 128.647 92.9397 128.661 93.1074V94.5387C128.662 94.5542 128.66 94.5698 128.655 94.5845C128.65 94.5992 128.642 94.6127 128.631 94.6242C128.62 94.6363 128.606 94.646 128.591 94.6526C128.575 94.6592 128.559 94.6626 128.542 94.6626H128.118C128.097 94.6649 128.076 94.6618 128.057 94.6536C128.038 94.6453 128.021 94.6323 128.008 94.6156L128.021 94.6071ZM125.9 94.6071C125.889 94.5958 125.88 94.5824 125.874 94.5678C125.868 94.5531 125.866 94.5374 125.866 94.5216V92.1075C125.865 92.0731 125.877 92.0396 125.9 92.0135C125.911 92.0019 125.925 91.9929 125.941 91.987C125.956 91.9812 125.972 91.9785 125.989 91.9793H126.413C126.43 91.9782 126.447 91.9806 126.463 91.9865C126.479 91.9924 126.494 92.0016 126.506 92.0135C126.529 92.0396 126.541 92.0731 126.54 92.1075V92.3169C126.625 92.2037 126.737 92.1136 126.865 92.0546C126.993 91.9957 127.134 91.9698 127.274 91.9793H127.486C127.502 91.978 127.518 91.9799 127.534 91.9851C127.549 91.9902 127.563 91.9984 127.575 92.0093C127.587 92.021 127.596 92.0351 127.602 92.0505C127.607 92.066 127.61 92.0825 127.609 92.099V92.475C127.61 92.4909 127.608 92.5069 127.602 92.5218C127.596 92.5366 127.587 92.5498 127.575 92.5604C127.564 92.5733 127.551 92.5834 127.535 92.5901C127.52 92.5967 127.503 92.5997 127.486 92.5989H127.087C127.019 92.595 126.95 92.6051 126.885 92.6286C126.82 92.6521 126.76 92.6885 126.71 92.7356C126.662 92.7859 126.625 92.8457 126.601 92.9111C126.577 92.9765 126.566 93.0462 126.57 93.1159V94.5216C126.571 94.5376 126.569 94.5536 126.563 94.5684C126.557 94.5832 126.548 94.5965 126.536 94.6071C126.525 94.6191 126.512 94.6288 126.498 94.6354C126.483 94.642 126.467 94.6455 126.451 94.6455H125.963C125.931 94.6478 125.899 94.6371 125.874 94.6156L125.9 94.6071ZM123.049 94.6071C123.038 94.5958 123.03 94.5824 123.024 94.5678C123.018 94.5531 123.015 94.5374 123.015 94.5216V92.5263H122.591C122.575 92.5275 122.558 92.5252 122.543 92.5194C122.527 92.5137 122.513 92.5046 122.501 92.4928C122.49 92.481 122.481 92.4669 122.475 92.4512C122.469 92.4356 122.467 92.4189 122.468 92.4023V92.099C122.469 92.0672 122.481 92.0368 122.502 92.0135C122.514 92.0019 122.528 91.9929 122.543 91.987C122.558 91.9812 122.575 91.9785 122.591 91.9793H123.015V91.7743C123.006 91.6469 123.023 91.519 123.066 91.3989C123.109 91.2789 123.177 91.1694 123.266 91.0778C123.479 90.9097 123.747 90.8288 124.016 90.8513H125.073C125.089 90.85 125.105 90.8519 125.12 90.8571C125.136 90.8622 125.15 90.8704 125.162 90.8812C125.183 90.906 125.195 90.9379 125.196 90.971V91.2743C125.196 91.2911 125.192 91.3077 125.186 91.3232C125.179 91.3386 125.17 91.3525 125.157 91.3641C125.146 91.3751 125.133 91.3838 125.118 91.3897C125.104 91.3956 125.088 91.3985 125.073 91.3983H124.042C123.991 91.3934 123.94 91.3997 123.891 91.4167C123.843 91.4336 123.799 91.4609 123.762 91.4965C123.703 91.5859 123.674 91.6926 123.681 91.7999V91.9793H125.073C125.089 91.978 125.105 91.9799 125.12 91.9851C125.136 91.9902 125.15 91.9984 125.162 92.0093C125.183 92.034 125.195 92.0659 125.196 92.099V94.5216C125.196 94.5374 125.193 94.5531 125.187 94.5678C125.181 94.5824 125.173 94.5958 125.162 94.6071C125.151 94.6199 125.137 94.63 125.122 94.6367C125.106 94.6434 125.089 94.6464 125.073 94.6455H124.648C124.616 94.6435 124.586 94.6298 124.564 94.607C124.541 94.5842 124.527 94.5538 124.525 94.5216V92.5263H123.677V94.5216C123.678 94.5376 123.676 94.5536 123.67 94.5684C123.664 94.5832 123.655 94.5965 123.643 94.6071C123.632 94.6199 123.618 94.63 123.603 94.6367C123.588 94.6434 123.571 94.6464 123.554 94.6455H123.13C123.111 94.6492 123.092 94.6484 123.073 94.6432C123.055 94.638 123.038 94.6286 123.024 94.6156L123.049 94.6071ZM121.17 93.9619C121.267 93.8275 121.32 93.6664 121.323 93.5004C121.323 93.4577 121.323 93.3936 121.323 93.3039C121.323 93.2142 121.323 93.1458 121.323 93.1031C121.32 92.947 121.264 92.7965 121.166 92.6758C121.113 92.6155 121.048 92.568 120.974 92.5369C120.901 92.5058 120.821 92.4919 120.742 92.4963C120.381 92.4963 120.186 92.7228 120.161 93.1757V93.4833C120.186 93.9106 120.381 94.1584 120.742 94.1584C120.824 94.1628 120.905 94.1473 120.98 94.1131C121.055 94.0788 121.12 94.027 121.17 93.9619ZM119.758 94.3892C119.56 94.1374 119.454 93.8255 119.457 93.5047V93.1458C119.454 92.827 119.558 92.5166 119.754 92.2656C119.852 92.153 119.974 92.0645 120.112 92.0067C120.249 91.949 120.398 91.9235 120.547 91.9323C120.693 91.926 120.839 91.9531 120.973 92.0116C121.108 92.07 121.227 92.1583 121.323 92.2699V91.1291C121.323 91.1123 121.326 91.0957 121.333 91.0803C121.339 91.0648 121.349 91.0509 121.361 91.0393C121.373 91.0289 121.386 91.0208 121.401 91.0157C121.415 91.0105 121.431 91.0084 121.446 91.0094H121.87C121.886 91.0081 121.902 91.01 121.918 91.0151C121.933 91.0203 121.947 91.0285 121.959 91.0393C121.971 91.0511 121.98 91.0652 121.986 91.0806C121.991 91.0961 121.994 91.1126 121.993 91.1291V94.5473C121.994 94.5632 121.992 94.5792 121.986 94.594C121.98 94.6089 121.971 94.6221 121.959 94.6327C121.948 94.6455 121.935 94.6557 121.919 94.6623C121.904 94.669 121.887 94.672 121.87 94.6712H121.446C121.414 94.6692 121.384 94.6555 121.361 94.6326C121.339 94.6098 121.325 94.5795 121.323 94.5473V94.355C121.223 94.4675 121.102 94.558 120.966 94.6211C120.83 94.6842 120.683 94.7184 120.533 94.7216C120.383 94.7248 120.235 94.6969 120.096 94.6397C119.958 94.5826 119.832 94.4973 119.728 94.3892H119.758ZM118.133 94.0345C118.24 93.8907 118.296 93.7144 118.29 93.5346C118.29 93.5004 118.29 93.4364 118.29 93.3381C118.29 93.2398 118.29 93.1714 118.29 93.1373C118.295 92.9576 118.24 92.7815 118.133 92.6373C118.08 92.5778 118.015 92.5314 117.941 92.5017C117.867 92.4721 117.788 92.46 117.709 92.4664C117.63 92.4607 117.551 92.473 117.477 92.5026C117.404 92.5322 117.338 92.5783 117.285 92.6373C117.178 92.7815 117.123 92.9576 117.128 93.1373V93.5346C117.122 93.7144 117.178 93.8907 117.285 94.0345C117.339 94.0923 117.405 94.1372 117.478 94.1661C117.552 94.1949 117.63 94.2069 117.709 94.2012C117.793 94.2068 117.878 94.1915 117.955 94.1564C118.032 94.1214 118.099 94.0678 118.15 94.0004L118.133 94.0345ZM116.793 94.4148C116.681 94.3029 116.592 94.1698 116.532 94.0231C116.471 93.8764 116.44 93.7191 116.441 93.5603V93.1116C116.441 92.9524 116.472 92.7948 116.533 92.648C116.594 92.5013 116.684 92.3683 116.797 92.2571C117.055 92.0391 117.386 91.929 117.722 91.9494C118.055 91.9295 118.383 92.0396 118.638 92.2571C118.751 92.3683 118.841 92.5013 118.902 92.648C118.963 92.7948 118.995 92.9524 118.994 93.1116C118.994 93.1501 118.994 93.227 118.994 93.3381C118.994 93.4492 118.994 93.5218 118.994 93.5603C118.995 93.7191 118.964 93.8764 118.903 94.0231C118.843 94.1698 118.754 94.3029 118.642 94.4148C118.375 94.6146 118.051 94.7225 117.718 94.7225C117.385 94.7225 117.06 94.6146 116.793 94.4148ZM115.117 94.0345C115.225 93.8912 115.279 93.7142 115.27 93.5346C115.274 93.4692 115.274 93.4035 115.27 93.3381C115.274 93.2712 115.274 93.2041 115.27 93.1373C115.277 92.9573 115.221 92.7807 115.113 92.6373C115.061 92.5775 114.995 92.5309 114.921 92.5013C114.848 92.4716 114.768 92.4597 114.689 92.4664C114.61 92.4603 114.531 92.4726 114.457 92.5022C114.384 92.5318 114.318 92.5781 114.265 92.6373C114.155 92.7801 114.098 92.9568 114.104 93.1373V93.5346C114.097 93.7152 114.154 93.8921 114.265 94.0345C114.378 94.1462 114.53 94.2088 114.689 94.2088C114.848 94.2088 115 94.1462 115.113 94.0345H115.117ZM113.777 94.4148C113.664 94.3035 113.575 94.1704 113.515 94.0236C113.454 93.8768 113.424 93.7192 113.425 93.5603V93.1116C113.425 92.9524 113.456 92.7948 113.517 92.648C113.578 92.5013 113.668 92.3683 113.781 92.2571C114.047 92.0577 114.369 91.95 114.7 91.95C115.031 91.95 115.353 92.0577 115.618 92.2571C115.731 92.3683 115.821 92.5013 115.882 92.648C115.943 92.7948 115.974 92.9524 115.974 93.1116C115.974 93.1501 115.974 93.227 115.974 93.3381C115.974 93.4492 115.974 93.5218 115.974 93.5603C115.975 93.7191 115.944 93.8764 115.883 94.0231C115.823 94.1698 115.734 94.3029 115.622 94.4148C115.355 94.6143 115.032 94.7219 114.7 94.7219C114.367 94.7219 114.044 94.6143 113.777 94.4148ZM111.995 93.9192C112.091 93.7888 112.146 93.6325 112.152 93.4705C112.155 93.415 112.155 93.3594 112.152 93.3039C112.155 93.2498 112.155 93.1956 112.152 93.1415C112.146 92.9782 112.091 92.8206 111.995 92.6886C111.944 92.6273 111.878 92.5788 111.805 92.5469C111.731 92.5151 111.651 92.5007 111.571 92.5049C111.202 92.5049 111.011 92.7313 110.99 93.1843V93.3039C110.99 93.838 111.185 94.1072 111.576 94.1072C111.66 94.1116 111.743 94.0953 111.819 94.0595C111.896 94.0237 111.962 93.9697 112.012 93.9021L111.995 93.9192ZM110.854 95.6283C110.693 95.5515 110.555 95.4319 110.456 95.2822C110.389 95.1833 110.349 95.0683 110.341 94.9489C110.341 94.933 110.343 94.9172 110.349 94.9025C110.355 94.8877 110.364 94.8744 110.375 94.8634C110.399 94.8431 110.429 94.8324 110.46 94.8335H110.914C110.942 94.8313 110.971 94.8389 110.994 94.8549C111.02 94.8773 111.038 94.9072 111.045 94.9404C111.083 95.0286 111.141 95.1064 111.215 95.1668C111.317 95.2377 111.44 95.271 111.563 95.2608C111.645 95.2769 111.73 95.2722 111.809 95.2471C111.889 95.2221 111.961 95.1775 112.02 95.1174C112.078 95.0572 112.121 94.9834 112.144 94.9026C112.167 94.8217 112.17 94.7363 112.152 94.6541V94.3037C111.943 94.5135 111.659 94.6312 111.363 94.6312C111.068 94.6312 110.784 94.5135 110.575 94.3037C110.384 94.0511 110.284 93.7408 110.29 93.4235V93.2825V93.1458C110.287 92.8284 110.389 92.5188 110.579 92.2656C110.676 92.152 110.799 92.0627 110.936 92.0049C111.074 91.9471 111.223 91.9222 111.372 91.9323C111.536 91.9284 111.699 91.9635 111.847 92.0349C111.978 92.0992 112.093 92.1927 112.182 92.3083V92.1118C112.182 92.0943 112.185 92.0769 112.191 92.0607C112.198 92.0445 112.208 92.0299 112.22 92.0178C112.232 92.0062 112.246 91.9972 112.261 91.9913C112.277 91.9854 112.293 91.9828 112.309 91.9836H112.734C112.75 91.9828 112.766 91.9854 112.782 91.9913C112.797 91.9972 112.811 92.0062 112.823 92.0178C112.845 92.0439 112.857 92.0773 112.857 92.1118V94.5814C112.868 94.7421 112.845 94.9032 112.791 95.0548C112.737 95.2063 112.653 95.3448 112.543 95.4616C112.413 95.5748 112.262 95.6611 112.099 95.7153C111.936 95.7696 111.764 95.7908 111.593 95.7778C111.344 95.7881 111.096 95.7368 110.871 95.6283H110.854Z" fill="white"/>
<path d="M193.152 71.013H177.708V94.778H193.152L188.189 83.6176L193.152 71.013ZM55.8779 71.013H71.3219V94.778H55.8779L60.8365 83.6176L55.8779 71.013Z" fill="#2C72C6"/>
<path d="M185.521 62.8563L177.712 70.9745V94.7395L185.521 86.9247V62.8563ZM63.6699 62.8563L71.4958 71.3206V94.7652L63.6699 86.9033V62.8563Z" fill="#3D597A"/>
<path d="M63.4961 86.7751H185.504L185.491 62.7111H63.4961V86.7751Z" fill="#4385F4"/>
<path opacity="0.5" d="M125.984 104.494C130.187 104.685 134.392 104.183 138.434 103.007C136.987 101.127 139.375 99.2558 141.662 97.4527C144.058 95.6582 146.459 93.8679 146.459 93.8594C146.459 93.8508 143.634 96.7776 143.914 99.2815C144.007 99.849 143.991 100.429 143.867 100.991C144.521 100.691 145.164 100.375 145.797 100.042C144.101 98.4269 146.022 96.1154 147.85 93.9192C149.784 91.7059 151.736 89.5311 151.736 89.5225C151.736 89.514 149.589 92.9023 150.31 95.3676C150.501 95.9163 150.59 96.4956 150.573 97.0767C151.142 96.6495 151.697 96.2478 152.236 95.7949C150.344 94.4533 151.727 91.8127 153.084 89.3388C154.522 86.8179 156.007 84.3781 156.007 84.3739C156.007 84.3696 154.561 88.0484 155.697 90.4027C155.98 90.9207 156.169 91.4848 156.257 92.0691C156.728 91.5692 157.186 91.0607 157.623 90.5437C155.604 89.4969 156.393 86.6726 157.25 83.9979C158.204 81.2804 159.231 78.7296 159.218 78.6911C159.273 78.6911 158.454 82.5152 159.977 84.673C160.344 85.1451 160.63 85.6749 160.826 86.2411C161.19 85.6714 161.541 85.1017 161.878 84.532C159.723 83.78 160.003 80.8788 160.384 78.1228C160.847 75.3242 161.419 72.6836 161.419 72.6537C161.419 72.6238 161.301 76.4992 163.158 78.4219C163.594 78.8375 163.961 79.3208 164.244 79.8533C164.414 79.4645 164.579 79.0714 164.736 78.6783C164.859 78.3749 164.974 78.0716 165.088 77.7639C162.921 77.3367 162.726 74.6106 162.666 72.0043C162.666 69.3466 162.823 66.83 162.836 66.8043C162.849 66.7787 163.26 70.3764 165.309 71.9316C165.786 72.2668 166.207 72.6765 166.556 73.1451C166.768 72.3205 166.959 71.4958 167.129 70.6626C164.978 70.6071 164.393 68.0776 163.973 65.655C163.553 63.2323 163.413 60.8481 163.434 60.8225C163.455 60.7969 164.308 64.0698 166.442 65.2362C166.948 65.4901 167.411 65.8249 167.812 66.2275C167.913 65.2875 167.99 64.3518 168.041 63.4118C165.975 63.6596 165.097 61.3993 164.393 59.1989C163.954 57.7474 163.588 56.2742 163.298 54.7851C163.328 54.7851 164.503 57.6906 166.654 58.4896C167.169 58.659 167.654 58.9131 168.087 59.2416C168.062 58.387 168.024 57.5709 167.96 56.742C167.96 56.5455 167.93 56.3532 167.913 56.1567C166.051 56.6779 164.893 54.6655 164.007 52.7385C163.12 50.8115 162.488 48.7477 162.488 48.7435C162.488 48.7392 163.93 51.3071 166.03 51.7728C166.522 51.8609 166.996 52.0298 167.434 52.2727C167.256 51.1789 167.052 50.0894 166.811 49.0041C165.178 49.6706 163.884 47.9744 162.866 46.2824C162.188 45.1096 161.572 43.9015 161.021 42.6633C161.042 42.6633 162.637 44.9535 164.626 45.0988C165.06 45.1146 165.49 45.1982 165.899 45.3466C165.571 44.2072 165.21 43.0821 164.817 41.9712C163.43 42.6762 162.098 41.2832 160.999 39.8348C160.231 38.7751 159.523 37.6724 158.879 36.532C158.9 36.532 160.63 38.5914 162.463 38.4718C162.803 38.4407 163.145 38.4565 163.481 38.5188C163.031 37.425 162.549 36.3311 162.034 35.2373L161.945 35.0237C160.796 35.733 159.464 34.5964 158.323 33.3146C157.479 32.3402 156.686 31.3219 155.948 30.2638C155.973 30.2638 157.831 32.1396 159.477 31.8106C159.819 31.7342 160.172 31.7154 160.52 31.755C159.376 29.3176 158.094 26.948 156.681 24.658C158.281 27.0208 159.706 29.358 160.966 31.6268C161.114 31.212 161.322 30.8217 161.585 30.4689C162.111 29.7597 162.124 28.6103 161.937 27.6276C161.813 27.0171 161.634 26.4193 161.402 25.8416C162.248 27.2161 162.928 28.6879 163.426 30.2254C164.075 32.3917 164.058 34.4469 162.577 34.7032C163.171 35.9039 163.714 37.1045 164.219 38.3051C164.427 37.9697 164.676 37.6624 164.961 37.3908C165.64 36.7456 165.81 35.592 165.784 34.5964C165.755 33.9744 165.661 33.3572 165.504 32.7549C166.19 34.2284 166.689 35.7831 166.989 37.3822C167.354 39.5784 167.078 41.6251 165.559 41.7917C165.945 42.8941 166.297 43.9922 166.62 45.0988C166.873 44.8212 167.158 44.5745 167.468 44.3639C169.101 43.2829 168.779 40.0057 168.741 39.7579C169.261 41.3362 169.572 42.9769 169.665 44.6374C169.754 46.9019 169.211 48.9614 167.625 48.9785C167.625 48.9785 167.625 48.9785 167.625 49.0041C167.84 50.0125 168.029 51.0279 168.193 52.0506C168.494 51.8055 168.821 51.5961 169.169 51.4267C171.048 50.5466 171.146 47.1284 171.116 46.872C171.455 48.5727 171.567 50.3115 171.447 52.042C171.239 54.4048 170.386 56.4899 168.707 56.272C168.783 57.2206 168.838 58.1691 168.868 59.1262C169.226 58.9061 169.609 58.7296 170.009 58.6007C172.049 57.9726 172.634 54.5886 172.668 54.1613C172.795 55.9776 172.678 57.8029 172.321 59.5877C171.812 62.0274 170.531 64.1766 168.817 63.6382C168.766 64.4928 168.698 65.3901 168.601 66.2617C169.026 66.0626 169.475 65.919 169.937 65.8344C172.202 65.4627 173.288 61.8821 173.33 61.5361C173.213 63.4758 172.829 65.3898 172.189 67.2231C171.294 69.7867 169.597 71.8932 167.85 70.9617C167.684 71.7565 167.498 72.5555 167.29 73.3459C167.792 73.1814 168.315 73.0893 168.842 73.0725C171.311 73.0041 172.999 69.227 173.05 69.0091C172.648 71.0533 171.954 73.028 170.989 74.8713C169.631 77.4734 167.468 79.5158 165.767 78.1314C165.504 78.8321 165.221 79.5271 164.919 80.2165C165.49 80.1026 166.075 80.0752 166.654 80.1353C169.283 80.4258 171.68 76.5975 171.705 76.4522C170.966 78.5606 169.916 80.5453 168.592 82.34C166.713 84.9037 164.058 86.7538 162.518 84.9507C162.173 85.5375 161.817 86.1072 161.449 86.6598C162.033 86.6263 162.619 86.6796 163.188 86.8179C165.81 87.4887 168.881 83.874 168.83 83.827C167.744 85.8581 166.348 87.7051 164.694 89.3003C162.378 91.5905 159.396 93.039 158.153 91.0094C157.708 91.535 157.246 92.0477 156.766 92.5562C157.36 92.6105 157.942 92.7546 158.493 92.9834C160.885 93.9704 164.333 91.2017 164.647 90.8727C163.218 92.7021 161.527 94.3076 159.629 95.6368C156.834 97.5724 153.606 98.4654 152.698 96.3375C152.147 96.7862 151.579 97.2177 151.002 97.6407C151.596 97.7812 152.168 98.0071 152.698 98.3116C154.938 99.6489 158.9 97.457 159.299 97.1793C157.522 98.7688 155.521 100.083 153.36 101.08C150.175 102.533 146.713 102.849 146.179 100.653C145.534 100.991 144.877 101.32 144.211 101.627C144.771 101.859 145.296 102.168 145.772 102.546C147.804 104.221 152.202 102.768 152.698 102.546C150.596 103.817 148.317 104.765 145.937 105.357C142.434 106.212 138.845 105.896 138.675 103.695C134.582 104.898 130.32 105.407 126.061 105.203L125.984 104.494Z" fill="#4385F4"/>
<path d="M125.276 7.60976L127.779 12.7114L133.373 13.5275L129.323 17.5182L130.281 23.1198L125.276 20.475L120.275 23.1198L121.23 17.5182L117.179 13.5489L122.773 12.7328L125.276 7.60976Z" fill="#FFA829"/>
<path d="M109.765 17.5524L108.267 14.4931L106.766 17.5524L103.406 18.0438L105.837 20.4237L105.264 23.7864L108.267 22.1969L111.266 23.7864L110.693 20.4237L113.124 18.0438L109.765 17.5524Z" fill="#F8B64C"/>
<path d="M147.147 18.0438L143.787 17.5524L142.29 14.4931L140.788 17.5524L137.433 18.0438L139.859 20.4237L139.287 23.7864L142.29 22.1969L145.289 23.7864L144.716 20.4237L147.147 18.0438Z" fill="#F8B64C"/>
<path d="M101.421 25.5296L100.522 23.6924L99.6227 25.5296L97.6079 25.8245L99.0628 27.2516L98.7192 29.2683L100.522 28.3197L102.32 29.2683L101.977 27.2516L103.436 25.8245L101.421 25.5296Z" fill="#FFD15C"/>
<path d="M152.945 25.8245L150.93 25.5296L150.031 23.6924L149.131 25.5296L147.117 25.8245L148.576 27.2516L148.232 29.2683L150.031 28.3197L151.833 29.2683L151.49 27.2516L152.945 25.8245Z" fill="#FFD15C"/>
<path d="M83.0798 73.2605V69.0262H81.5952V68.1417H85.6333V69.0262H84.1445V73.2605H83.0798Z" fill="white"/>
<path d="M90.6809 70.7054C90.6809 72.329 89.735 73.3502 88.2334 73.3502C86.7319 73.3502 85.7817 72.329 85.7817 70.7054C85.7817 69.0817 86.7234 68.052 88.2334 68.052C89.7435 68.052 90.6809 69.0732 90.6809 70.7054ZM86.8634 70.7054C86.8634 71.7735 87.3978 72.4529 88.2334 72.4529C89.069 72.4529 89.595 71.7735 89.595 70.7054C89.595 69.6372 89.0606 68.9493 88.2334 68.9493C87.4063 68.9493 86.8634 69.6457 86.8634 70.7054Z" fill="white"/>
<path d="M93.4846 68.1417C93.7178 68.127 93.9514 68.162 94.1702 68.2445C94.3889 68.3271 94.5879 68.4552 94.7541 68.6206C94.9203 68.786 95.05 68.9849 95.1345 69.2043C95.2191 69.4236 95.2567 69.6585 95.2449 69.8935C95.2514 70.1316 95.2084 70.3684 95.1187 70.5887C95.0289 70.8091 94.8945 71.0081 94.724 71.173C94.5535 71.338 94.3506 71.4652 94.1284 71.5465C93.9062 71.6279 93.6696 71.6615 93.4337 71.6454H92.4284V73.2605H91.3638V68.1332L93.4846 68.1417ZM92.4284 70.8079H93.2004C93.324 70.8164 93.448 70.7993 93.5647 70.7575C93.6814 70.7158 93.7884 70.6503 93.8789 70.5651C93.9694 70.48 94.0416 70.377 94.0909 70.2626C94.1403 70.1481 94.1658 70.0247 94.1658 69.8999C94.1658 69.7752 94.1403 69.6517 94.0909 69.5373C94.0416 69.4229 93.9694 69.3199 93.8789 69.2347C93.7884 69.1496 93.6814 69.0841 93.5647 69.0423C93.448 69.0006 93.324 68.9834 93.2004 68.992H92.4284V70.8079Z" fill="white"/>
<path d="M99.4993 73.2605H98.494L97.1494 68.1332H98.265L99.0624 71.8419H99.0921L100.042 68.1332H100.941L101.892 71.8419H101.921L102.723 68.1332H103.826L102.477 73.2605H101.472L100.509 69.7654H100.475L99.4993 73.2605Z" fill="white"/>
<path d="M107.749 73.2605H104.381V68.1332H107.749V69.0176H105.446V70.2524H107.618V71.0728H105.446V72.3546H107.749V73.2605Z" fill="white"/>
<path d="M108.517 73.2605V68.1332H110.757C111.711 68.1332 112.309 68.6288 112.309 69.415C112.308 69.6838 112.212 69.9435 112.038 70.1472C111.864 70.3509 111.623 70.4852 111.359 70.5259V70.5515C111.679 70.5626 111.982 70.6977 112.205 70.9287C112.428 71.1596 112.553 71.4685 112.555 71.7906C112.555 72.6922 111.881 73.2562 110.799 73.2562L108.517 73.2605ZM109.578 70.2695H110.375C110.943 70.2695 111.266 70.0174 111.266 69.5859C111.266 69.1544 110.982 68.9407 110.485 68.9407H109.578V70.2695ZM110.528 72.4615C111.138 72.4615 111.469 72.2008 111.469 71.7095C111.469 71.2181 111.13 70.9745 110.502 70.9745H109.578V72.4615H110.528Z" fill="white"/>
<path d="M116.665 68.1417C118.192 68.1417 119.087 69.0561 119.087 70.6797C119.087 72.3034 118.192 73.2434 116.665 73.2434H114.71V68.1161L116.665 68.1417ZM115.77 72.3717H116.538C117.493 72.3717 118.006 71.7906 118.006 70.684C118.006 69.5774 117.476 69.0262 116.538 69.0262H115.77V72.3717Z" fill="white"/>
<path d="M123.138 73.2605H119.771V68.1332H123.138V69.0176H120.835V70.2524H123.007V71.0728H120.835V72.3546H123.138V73.2605Z" fill="white"/>
<path d="M125.289 73.2605L123.592 68.1332H124.78L125.942 72.1495H125.968L127.13 68.1332H128.288L126.591 73.2605H125.289Z" fill="white"/>
<path d="M132.16 73.2605H128.805V68.1332H132.169V69.0176H129.87V70.2524H132.042V71.0728H129.87V72.3546H132.169L132.16 73.2605Z" fill="white"/>
<path d="M136.216 73.2605H132.928V68.1332H133.993V72.3632H136.216V73.2605Z" fill="white"/>
<path d="M141.378 70.7054C141.378 72.329 140.427 73.3502 138.926 73.3502C137.424 73.3502 136.474 72.329 136.474 70.7054C136.474 69.0817 137.42 68.052 138.926 68.052C140.432 68.052 141.378 69.0732 141.378 70.7054ZM137.56 70.7054C137.56 71.7735 138.09 72.4529 138.926 72.4529C139.761 72.4529 140.287 71.7735 140.287 70.7054C140.287 69.6372 139.757 68.9493 138.926 68.9493C138.094 68.9493 137.56 69.6457 137.56 70.7054Z" fill="white"/>
<path d="M144.181 68.1417C144.414 68.1276 144.648 68.1632 144.866 68.2459C145.085 68.3287 145.283 68.4569 145.449 68.6221C145.615 68.7874 145.745 68.986 145.83 69.205C145.915 69.4241 145.953 69.6587 145.942 69.8935C145.948 70.132 145.905 70.3692 145.815 70.5898C145.725 70.8104 145.59 71.0097 145.419 71.1747C145.248 71.3397 145.045 71.4668 144.822 71.5479C144.6 71.6289 144.362 71.6621 144.126 71.6454H143.121V73.2605H142.061V68.1332L144.181 68.1417ZM143.121 70.8079H143.893C144.017 70.8164 144.141 70.7993 144.257 70.7575C144.374 70.7158 144.481 70.6503 144.571 70.5651C144.662 70.48 144.734 70.377 144.783 70.2626C144.833 70.1481 144.858 70.0247 144.858 69.8999C144.858 69.7752 144.833 69.6517 144.783 69.5373C144.734 69.4229 144.662 69.3199 144.571 69.2347C144.481 69.1496 144.374 69.0841 144.257 69.0423C144.141 69.0006 144.017 68.9834 143.893 68.992H143.117L143.121 70.8079Z" fill="white"/>
<path d="M151.948 73.2605H150.998V69.8038H150.972L149.589 73.222H148.923L147.541 69.8038H147.515V73.2605H146.565V68.1332H147.799L149.241 71.7607H149.271L150.713 68.1332H151.948V73.2605Z" fill="white"/>
<path d="M156.156 73.2605H152.792V68.1332H156.156V69.0176H153.857V70.2524H156.028V71.0728H153.857V72.3546H156.156V73.2605Z" fill="white"/>
<path d="M156.923 73.2605V68.1332H157.81L160.185 71.4659H160.215V68.1332H161.233V73.2605H160.351L157.975 69.9106H157.941V73.2605H156.923Z" fill="white"/>
<path d="M163.307 73.2605V69.0262H161.822V68.1417H165.86V69.0262H164.372V73.2605H163.307Z" fill="white"/>
<path d="M106.893 79.4175C106.893 77.7682 107.826 76.7684 109.298 76.7684C109.845 76.736 110.384 76.9186 110.801 77.2779C111.218 77.6373 111.48 78.1453 111.533 78.6954H110.498C110.46 78.4036 110.317 78.1362 110.095 77.9445C109.874 77.7528 109.59 77.6504 109.298 77.6571C108.496 77.6571 107.978 78.3322 107.978 79.4132C107.978 80.4942 108.487 81.1821 109.293 81.1821C109.578 81.1991 109.859 81.1081 110.08 80.927C110.302 80.7459 110.448 80.4878 110.49 80.2037H111.524C111.406 81.3445 110.536 82.0709 109.289 82.0709C107.822 82.0666 106.893 81.0668 106.893 79.4175Z" fill="white"/>
<path d="M116.928 79.4218C116.928 81.0497 115.982 82.0666 114.477 82.0666C112.971 82.0666 112.025 81.0497 112.025 79.4218C112.025 77.7938 112.971 76.7684 114.477 76.7684C115.982 76.7684 116.928 77.7896 116.928 79.4218ZM113.111 79.4218C113.111 80.4899 113.641 81.1693 114.477 81.1693C115.312 81.1693 115.838 80.4899 115.838 79.4218C115.838 78.3536 115.308 77.6657 114.477 77.6657C113.645 77.6657 113.111 78.345 113.111 79.4218Z" fill="white"/>
<path d="M122.994 81.9769H122.048V78.5245H122.019L120.64 81.9427H119.97L118.591 78.5245H118.562V81.9769H117.616V76.8496H118.846L120.292 80.4771H120.322L121.768 76.8496H122.998L122.994 81.9769Z" fill="white"/>
<path d="M125.959 76.8581C126.192 76.8434 126.426 76.8784 126.644 76.9609C126.863 77.0435 127.062 77.1716 127.228 77.337C127.395 77.5024 127.524 77.7013 127.609 77.9207C127.693 78.14 127.731 78.3749 127.719 78.6099C127.726 78.848 127.683 79.0848 127.593 79.3051C127.503 79.5254 127.369 79.7245 127.198 79.8894C127.028 80.0543 126.825 80.1816 126.603 80.2629C126.38 80.3442 126.144 80.3779 125.908 80.3618H124.903V81.9769H123.842V76.8496L125.959 76.8581ZM124.903 79.5243H125.675C125.798 79.5328 125.922 79.5157 126.039 79.4739C126.156 79.4322 126.263 79.3667 126.353 79.2815C126.444 79.1964 126.516 79.0934 126.565 78.979C126.615 78.8645 126.64 78.7411 126.64 78.6163C126.64 78.4916 126.615 78.3681 126.565 78.2537C126.516 78.1393 126.444 78.0363 126.353 77.9511C126.263 77.866 126.156 77.8005 126.039 77.7587C125.922 77.717 125.798 77.6998 125.675 77.7084H124.903V79.5243Z" fill="white"/>
<path d="M130.812 80.7549H129.026L128.64 81.9982H127.533L129.293 76.8709H130.544L132.313 81.9982H131.181L130.812 80.7549ZM129.255 79.9558H130.582L129.934 77.8579H129.908L129.255 79.9558Z" fill="white"/>
<path d="M132.848 81.9769V76.8496H133.734L136.11 80.1823H136.135V76.8496H137.153V81.9769H136.275L133.895 78.6185H133.866V81.9683L132.848 81.9769Z" fill="white"/>
<path d="M139.443 81.9769V80.0669L137.674 76.8581H138.832L139.969 79.0415H139.995L141.136 76.8581H142.277L140.504 80.0669V81.9769H139.443Z" fill="white"/>
</g>
<defs>
<clipPath id="clip0_7172_917">
<rect width="139" height="120" fill="white" transform="translate(55)"/>
</clipPath>
</defs>
</svg>
