<svg width="250" height="120" viewBox="0 0 250 120" fill="none" xmlns="http://www.w3.org/2000/svg">
<g clip-path="url(#clip0_7172_868)">
<path fill-rule="evenodd" clip-rule="evenodd" d="M75.1081 78.3568H55L62.0949 67.6164L55 56.3027H75.1081V78.3568Z" fill="#6DCDA9"/>
<path fill-rule="evenodd" clip-rule="evenodd" d="M175 78.3568H195.108L188.013 67.6164L195.108 56.3027H175V78.3568Z" fill="#6DCDA9"/>
<path d="M65.3784 71.8573L78.7406 79.2649L73.999 67.2H65.3784V71.8573Z" fill="#5EAF91"/>
<path d="M184.6 71.8573L171.238 79.2649L175.979 67.2H184.6V71.8573Z" fill="#5EAF91"/>
<path d="M179.541 29.987V89.987L125.391 120L71.2163 89.987V29.987L125.391 0L179.541 29.987Z" fill="#17313B"/>
<path d="M175.908 31.693V88.5652L125.198 117.015L74.4595 88.5652V31.693L125.198 3.24324L175.908 31.693Z" fill="url(#paint0_radial_7172_868)"/>
<path d="M175.908 31.693V88.5652L125.198 117.015L74.4595 88.5652V31.693L125.198 3.24324L175.908 31.693Z" fill="url(#paint1_radial_7172_868)"/>
<path d="M175.839 32.7338V87.5459L125.224 114.965L74.5806 87.5459V32.7338L125.224 5.31468L175.839 32.7338Z" stroke="url(#paint2_linear_7172_868)" stroke-width="1.03784" stroke-miterlimit="10"/>
<path fill-rule="evenodd" clip-rule="evenodd" d="M65.3784 71.8703C65.3784 71.9416 65.4368 72 65.5081 72H184.6C184.671 72 184.73 71.9416 184.73 71.8703V50.0757C184.73 50.0043 184.671 49.9459 184.6 49.9459H65.5081C65.4368 49.9459 65.3784 50.0043 65.3784 50.0757V71.8703Z" fill="#6DCDA9"/>
<path d="M116.103 27.1135H113.897V39.1784H116.103V27.1135Z" fill="white"/>
<path d="M123.432 35.5226C123.432 37.4102 121.704 37.5516 121.208 37.5516C119.978 37.5516 119.67 36.4424 119.67 35.7821V31.1351H117.919V35.7821C117.919 36.9379 118.274 37.9044 118.936 38.5661C119.528 39.1317 120.355 39.4391 121.326 39.4391C122.083 39.4391 122.698 39.203 123.431 38.7788V39.1096H125.442V31.1377H123.431V35.5252L123.432 35.5226Z" fill="white"/>
<path d="M129.534 28.4108H127.324V31.2324H126.092V32.784H127.324V39.1784H129.534V32.784H131.022V31.2324H129.534V28.4108Z" fill="white"/>
<path d="M137.501 36.8484C137.031 37.2467 136.443 37.4569 135.832 37.4335C134.42 37.4335 133.363 36.4268 133.363 35.0685C133.363 33.7103 134.375 32.7503 135.832 32.7503C136.443 32.7503 137.055 32.9604 137.525 33.3353L137.831 33.5935L139.194 32.2819L138.842 31.9771C138.019 31.2739 136.937 30.8757 135.808 30.8757C133.268 30.8757 131.411 32.6322 131.411 35.0685C131.411 37.5049 133.315 39.3081 135.808 39.3081C136.937 39.3315 138.019 38.9332 138.866 38.2067L139.196 37.9018L137.808 36.5903L137.501 36.8484Z" fill="white"/>
<path d="M146.506 31.9589C145.916 31.3946 145.067 31.0884 144.1 31.0884C143.345 31.0884 142.543 31.3232 141.977 31.7475V27.1148H139.972V39.1797H141.977V34.9933C141.977 33.1122 143.581 32.9708 144.076 32.9708C145.279 32.9708 145.492 34.0761 145.492 34.7351V39.1797H147.497V34.7351C147.474 33.5598 147.191 32.5946 146.506 31.9602V31.9589Z" fill="white"/>
<path d="M135.757 36.5838C136.58 36.5838 137.248 35.9455 137.248 35.1568C137.248 34.368 136.58 33.7297 135.757 33.7297C134.933 33.7297 134.265 34.368 134.265 35.1568C134.265 35.9455 134.933 36.5838 135.757 36.5838Z" fill="#FF3D2E"/>
<path d="M111.466 36.3775C110.687 37.1312 109.624 37.5788 108.515 37.5542C106.224 37.5542 104.571 35.8352 104.571 33.4819C104.571 31.1286 106.224 29.3864 108.515 29.3864C109.624 29.3864 110.688 29.8106 111.443 30.563L111.75 30.8692L113.12 29.5511L112.813 29.245C111.679 28.115 110.121 27.5027 108.492 27.5027C105.138 27.5027 102.612 30.0688 102.612 33.4819C102.612 36.8951 105.139 39.4378 108.492 39.4378C110.121 39.4378 111.679 38.8255 112.813 37.6956L113.12 37.3894L111.774 36.048L111.466 36.3775Z" fill="white"/>
<path d="M113.055 89.3918C112.631 89.3918 112.277 89.301 111.993 89.1193C111.714 88.9377 111.502 88.6865 111.357 88.3656C111.212 88.0448 111.127 87.6724 111.103 87.2486L112.011 87.0035C112.029 87.2638 112.068 87.515 112.129 87.7572C112.195 87.9993 112.301 88.1991 112.447 88.3565C112.592 88.5079 112.795 88.5836 113.055 88.5836C113.322 88.5836 113.521 88.5109 113.654 88.3656C113.794 88.2143 113.863 87.9993 113.863 87.7209C113.863 87.3879 113.788 87.1215 113.636 86.9217C113.485 86.7159 113.294 86.5101 113.064 86.3042L111.829 85.2145C111.587 85.0026 111.408 84.7725 111.293 84.5243C111.178 84.2701 111.121 83.9583 111.121 83.589C111.121 83.0502 111.275 82.6324 111.584 82.3358C111.893 82.0391 112.314 81.8908 112.846 81.8908C113.137 81.8908 113.391 81.9302 113.609 82.0089C113.833 82.0815 114.018 82.1965 114.163 82.3539C114.314 82.5113 114.432 82.7111 114.517 82.9533C114.608 83.1894 114.669 83.4679 114.699 83.7888L113.827 84.0249C113.809 83.7827 113.773 83.5617 113.718 83.3619C113.664 83.1561 113.567 82.9926 113.427 82.8716C113.294 82.7444 113.101 82.6809 112.846 82.6809C112.592 82.6809 112.392 82.7505 112.247 82.8897C112.108 83.0229 112.038 83.2227 112.038 83.4891C112.038 83.7131 112.074 83.8977 112.147 84.043C112.226 84.1883 112.35 84.3366 112.519 84.488L113.763 85.5777C114.042 85.8199 114.287 86.1105 114.499 86.4495C114.711 86.7825 114.817 87.179 114.817 87.6391C114.817 88.0024 114.741 88.3172 114.59 88.5836C114.438 88.8439 114.23 89.0437 113.963 89.1829C113.703 89.3222 113.4 89.3918 113.055 89.3918ZM115.613 89.3101V81.9544H117.438C117.88 81.9544 118.231 82.0361 118.492 82.1996C118.758 82.357 118.952 82.587 119.073 82.8897C119.194 83.1924 119.254 83.5587 119.254 83.9885C119.254 84.376 119.185 84.712 119.046 84.9965C118.912 85.2811 118.713 85.5021 118.446 85.6595C118.18 85.8108 117.847 85.8865 117.447 85.8865H116.639V89.3101H115.613ZM116.639 85.1509H117.111C117.408 85.1509 117.641 85.1176 117.81 85.051C117.98 84.9844 118.101 84.8694 118.174 84.7059C118.246 84.5364 118.283 84.3003 118.283 83.9976C118.283 83.6465 118.255 83.3771 118.201 83.1894C118.153 83.0017 118.047 82.8716 117.883 82.7989C117.72 82.7263 117.465 82.6899 117.12 82.6899H116.639V85.1509ZM119.976 89.3101V81.9544H121.456C121.947 81.9544 122.352 82.021 122.673 82.1542C122.994 82.2813 123.23 82.4902 123.381 82.7808C123.539 83.0653 123.618 83.4406 123.618 83.9068C123.618 84.1913 123.587 84.4517 123.527 84.6878C123.466 84.9178 123.369 85.1146 123.236 85.2781C123.103 85.4355 122.927 85.5505 122.709 85.6231L123.754 89.3101H122.764L121.801 85.8592H121.002V89.3101H119.976ZM121.002 85.1237H121.393C121.683 85.1237 121.919 85.0873 122.101 85.0147C122.283 84.9421 122.416 84.8179 122.501 84.6424C122.585 84.4668 122.628 84.2216 122.628 83.9068C122.628 83.477 122.549 83.1682 122.392 82.9805C122.234 82.7868 121.922 82.6899 121.456 82.6899H121.002V85.1237ZM124.74 89.3101V81.9544H125.748V89.3101H124.74ZM126.938 89.3101V81.9544H127.637L129.726 86.84V81.9544H130.579V89.3101H129.925L127.809 84.2882V89.3101H126.938ZM133.488 89.4009C133.028 89.4009 132.659 89.304 132.38 89.1103C132.108 88.9105 131.908 88.6229 131.781 88.2476C131.66 87.8722 131.599 87.4212 131.599 86.8945V84.4335C131.599 83.8947 131.654 83.4376 131.763 83.0623C131.878 82.6809 132.077 82.3903 132.362 82.1905C132.653 81.9907 133.055 81.8908 133.57 81.8908C134.03 81.8908 134.399 81.9695 134.678 82.1269C134.962 82.2783 135.168 82.5144 135.295 82.8352C135.422 83.15 135.486 83.5496 135.486 84.0339V84.3064H134.523V84.0793C134.523 83.7585 134.502 83.4982 134.46 83.2984C134.417 83.0925 134.33 82.9412 134.196 82.8443C134.069 82.7414 133.866 82.6899 133.588 82.6899C133.285 82.6899 133.064 82.7596 132.925 82.8988C132.792 83.038 132.707 83.2288 132.671 83.4709C132.64 83.707 132.625 83.9764 132.625 84.2791V87.0035C132.625 87.3546 132.65 87.6482 132.698 87.8843C132.752 88.1204 132.852 88.296 132.998 88.411C133.143 88.5261 133.349 88.5836 133.615 88.5836C133.882 88.5836 134.087 88.52 134.233 88.3929C134.378 88.2657 134.478 88.0781 134.532 87.8298C134.587 87.5816 134.614 87.2729 134.614 86.9036V86.395H133.679V85.6685H135.54V89.3101H134.896L134.796 88.4655C134.699 88.7379 134.547 88.9619 134.342 89.1375C134.136 89.3131 133.851 89.4009 133.488 89.4009Z" fill="white"/>
<path d="M117.194 105.455V104.864L118.797 102.365C118.916 102.178 119.025 102.004 119.124 101.843C119.228 101.683 119.311 101.514 119.373 101.338C119.441 101.156 119.474 100.948 119.474 100.715C119.474 100.424 119.428 100.196 119.334 100.03C119.241 99.8638 119.077 99.7808 118.844 99.7808C118.647 99.7808 118.494 99.8352 118.385 99.9442C118.276 100.053 118.2 100.196 118.159 100.372C118.117 100.549 118.097 100.738 118.097 100.941V101.151H117.264V100.933C117.264 100.554 117.313 100.23 117.412 99.9598C117.515 99.6848 117.679 99.472 117.902 99.3215C118.13 99.171 118.431 99.0958 118.805 99.0958C119.313 99.0958 119.692 99.2411 119.941 99.5317C120.19 99.8171 120.315 100.214 120.315 100.723C120.315 100.992 120.281 101.229 120.214 101.431C120.151 101.633 120.068 101.823 119.965 101.999C119.861 102.176 119.747 102.357 119.622 102.544L118.174 104.755H120.167V105.455H117.194ZM122.608 105.525C122.25 105.525 121.954 105.445 121.72 105.284C121.492 105.123 121.321 104.902 121.206 104.622C121.098 104.342 121.043 104.023 121.043 103.665V100.948C121.043 100.58 121.098 100.258 121.206 99.9831C121.315 99.7029 121.484 99.485 121.712 99.3293C121.946 99.1736 122.244 99.0958 122.608 99.0958C122.971 99.0958 123.267 99.1736 123.495 99.3293C123.723 99.485 123.892 99.7029 124.001 99.9831C124.11 100.258 124.164 100.58 124.164 100.948V103.665C124.164 104.028 124.107 104.35 123.993 104.63C123.884 104.91 123.715 105.131 123.487 105.292C123.259 105.447 122.966 105.525 122.608 105.525ZM122.608 104.84C122.805 104.84 122.953 104.783 123.051 104.669C123.155 104.555 123.225 104.41 123.261 104.233C123.303 104.051 123.324 103.865 123.324 103.673V100.941C123.324 100.738 123.306 100.549 123.269 100.372C123.233 100.191 123.163 100.045 123.059 99.9364C122.96 99.8275 122.81 99.773 122.608 99.773C122.405 99.773 122.252 99.8275 122.148 99.9364C122.045 100.045 121.974 100.191 121.938 100.372C121.902 100.549 121.884 100.738 121.884 100.941V103.673C121.884 103.865 121.902 104.051 121.938 104.233C121.98 104.41 122.052 104.555 122.156 104.669C122.265 104.783 122.416 104.84 122.608 104.84ZM124.932 105.455V104.864L126.535 102.365C126.655 102.178 126.764 102.004 126.862 101.843C126.966 101.683 127.049 101.514 127.111 101.338C127.179 101.156 127.212 100.948 127.212 100.715C127.212 100.424 127.166 100.196 127.072 100.03C126.979 99.8638 126.815 99.7808 126.582 99.7808C126.385 99.7808 126.232 99.8352 126.123 99.9442C126.014 100.053 125.939 100.196 125.897 100.372C125.855 100.549 125.835 100.738 125.835 100.941V101.151H125.002V100.933C125.002 100.554 125.051 100.23 125.15 99.9598C125.254 99.6848 125.417 99.472 125.64 99.3215C125.868 99.171 126.169 99.0958 126.543 99.0958C127.052 99.0958 127.43 99.2411 127.679 99.5317C127.929 99.8171 128.053 100.214 128.053 100.723C128.053 100.992 128.019 101.229 127.952 101.431C127.89 101.633 127.807 101.823 127.703 101.999C127.599 102.176 127.485 102.357 127.36 102.544L125.913 104.755H127.905V105.455H124.932ZM130.417 105.455V103.766H128.588V102.894L130.23 99.1503H131.211V103.027H131.919V103.766H131.211V105.455H130.417ZM129.39 103.027H130.417V100.162L129.39 103.027Z" fill="white"/>
<path d="M107.183 67.2711C106.512 67.2711 105.974 67.1299 105.569 66.8476C105.172 66.5565 104.88 66.1375 104.695 65.5905C104.519 65.0436 104.431 64.3864 104.431 63.6189V60.0329C104.431 59.2478 104.51 58.5818 104.669 58.0348C104.836 57.4791 105.127 57.0556 105.542 56.7645C105.966 56.4734 106.552 56.3278 107.302 56.3278C107.972 56.3278 108.511 56.4425 108.916 56.6719C109.331 56.8924 109.631 57.2365 109.816 57.704C110.001 58.1627 110.094 58.745 110.094 59.4507V59.8477H108.691V59.5169C108.691 59.0493 108.661 58.67 108.599 58.3789C108.537 58.0789 108.409 57.8584 108.215 57.7172C108.03 57.5673 107.734 57.4923 107.328 57.4923C106.887 57.4923 106.565 57.5937 106.363 57.7966C106.168 57.9995 106.045 58.2774 105.992 58.6303C105.948 58.9743 105.926 59.3669 105.926 59.808V63.7777C105.926 64.2894 105.961 64.7172 106.032 65.0612C106.111 65.4053 106.257 65.6611 106.468 65.8287C106.68 65.9963 106.98 66.0801 107.368 66.0801C107.756 66.0801 108.056 65.9875 108.268 65.8023C108.48 65.617 108.625 65.3435 108.705 64.9819C108.784 64.6202 108.824 64.1703 108.824 63.6321V62.8911H107.461V61.8325H110.173V67.1387H109.234L109.088 65.9081C108.947 66.3051 108.727 66.6315 108.427 66.8873C108.127 67.1431 107.712 67.2711 107.183 67.2711ZM111.71 67.1387V56.4205H113.206V66.0669H115.945V67.1387H111.71ZM119.631 67.2578C118.908 67.2578 118.33 67.1167 117.898 66.8344C117.466 66.5521 117.157 66.1507 116.972 65.6302C116.786 65.1009 116.694 64.4834 116.694 63.7777V59.7153C116.694 59.0096 116.786 58.4053 116.972 57.9025C117.166 57.3908 117.475 57.0027 117.898 56.738C118.33 56.4646 118.908 56.3278 119.631 56.3278C120.355 56.3278 120.928 56.4646 121.352 56.738C121.775 57.0115 122.079 57.3997 122.265 57.9025C122.459 58.4053 122.556 59.0096 122.556 59.7153V63.7909C122.556 64.4878 122.459 65.0965 122.265 65.617C122.079 66.1375 121.775 66.5433 121.352 66.8344C120.928 67.1167 120.355 67.2578 119.631 67.2578ZM119.631 66.0801C120.028 66.0801 120.328 66.0007 120.531 65.842C120.734 65.6743 120.871 65.445 120.941 65.1539C121.012 64.8539 121.047 64.5055 121.047 64.1085V59.411C121.047 59.014 121.012 58.6744 120.941 58.3921C120.871 58.101 120.734 57.8804 120.531 57.7305C120.328 57.5717 120.028 57.4923 119.631 57.4923C119.234 57.4923 118.93 57.5717 118.718 57.7305C118.515 57.8804 118.379 58.101 118.308 58.3921C118.238 58.6744 118.202 59.014 118.202 59.411V64.1085C118.202 64.5055 118.238 64.8539 118.308 65.1539C118.379 65.445 118.515 65.6743 118.718 65.842C118.93 66.0007 119.234 66.0801 119.631 66.0801ZM124.025 67.1387V56.4205H126.487C126.972 56.4205 127.391 56.4734 127.744 56.5793C128.105 56.6851 128.405 56.8483 128.644 57.0689C128.882 57.2894 129.058 57.5717 129.173 57.9157C129.288 58.251 129.345 58.6479 129.345 59.1066C129.345 59.5477 129.288 59.9315 129.173 60.2579C129.067 60.5754 128.899 60.8269 128.67 61.0121C128.449 61.1974 128.163 61.3165 127.81 61.3694C128.242 61.4664 128.591 61.634 128.855 61.8722C129.12 62.1016 129.314 62.4015 129.437 62.772C129.57 63.1337 129.636 63.5704 129.636 64.082C129.636 64.5408 129.583 64.9598 129.477 65.3391C129.371 65.7185 129.204 66.0404 128.974 66.3051C128.754 66.5697 128.467 66.7771 128.114 66.927C127.77 67.0682 127.36 67.1387 126.884 67.1387H124.025ZM125.521 66.0669H126.526C127.197 66.0669 127.642 65.9125 127.863 65.6038C128.092 65.2862 128.207 64.779 128.207 64.082C128.207 63.6321 128.145 63.2572 128.022 62.9573C127.907 62.6485 127.717 62.4192 127.453 62.2692C127.197 62.1104 126.848 62.031 126.407 62.031H125.521V66.0669ZM125.521 60.893H126.407C126.831 60.893 127.162 60.8357 127.4 60.721C127.638 60.5975 127.805 60.4034 127.903 60.1388C128 59.8741 128.048 59.5301 128.048 59.1066C128.048 58.6126 127.973 58.2554 127.823 58.0348C127.673 57.8143 127.439 57.6775 127.122 57.6246C126.804 57.5629 126.39 57.532 125.878 57.532H125.521V60.893ZM130.37 67.1387L132.646 56.4205H134.088L136.377 67.1387H134.961L134.472 64.4393H132.288L131.772 67.1387H130.37ZM132.487 63.3675H134.273L133.373 58.5377L132.487 63.3675ZM137.465 67.1387V56.4205H138.96V66.0669H141.699V67.1387H137.465Z" fill="white"/>
</g>
<defs>
<radialGradient id="paint0_radial_7172_868" cx="0" cy="0" r="1" gradientUnits="userSpaceOnUse" gradientTransform="translate(164.176 13.2835) rotate(131.1) scale(150.974 303.501)">
<stop stop-color="#17313B"/>
<stop offset="1" stop-color="#2E5272"/>
</radialGradient>
<radialGradient id="paint1_radial_7172_868" cx="0" cy="0" r="1" gradientUnits="userSpaceOnUse" gradientTransform="translate(164.176 13.2835) rotate(131.1) scale(150.974 303.501)">
<stop stop-color="#17313B"/>
<stop offset="1" stop-color="#2E5272"/>
</radialGradient>
<linearGradient id="paint2_linear_7172_868" x1="-5.25198" y1="-46.2803" x2="193.045" y2="127.211" gradientUnits="userSpaceOnUse">
<stop stop-color="#D2AE73"/>
<stop offset="0.12" stop-color="#BD9155"/>
<stop offset="0.32" stop-color="#F9E2B2"/>
<stop offset="0.97" stop-color="#BD9155"/>
</linearGradient>
<clipPath id="clip0_7172_868">
<rect width="140.108" height="120" fill="white" transform="translate(55)"/>
</clipPath>
</defs>
</svg>
